<svg xmlns="http://www.w3.org/2000/svg" width="32" height="24"><path fill="currentColor" d="M19.818 1a1.64 1.64 0 011.637 1.643 1.64 1.64 0 01-1.475 1.635l-.301.954a7.67 7.67 0 013.935 6.126l1.396.219c.294-.435.79-.72 1.354-.72A1.64 1.64 0 0128 12.5a1.64 1.64 0 01-1.636 1.643 1.638 1.638 0 01-1.57-1.18l-1.201-.19a7.658 7.658 0 01-2.384 4.786l.495.992a1.64 1.64 0 011.932 1.616A1.64 1.64 0 0122 21.81a1.64 1.64 0 01-1.636-1.643c0-.282.07-.547.195-.779l-.476-.956c-.8.51-1.7.873-2.664 1.055l.413 1.239a1.64 1.64 0 011.44 1.631A1.64 1.64 0 0117.637 24 1.64 1.64 0 0116 22.357c0-.467.194-.888.505-1.187l-.514-1.551-.238-.004a7.608 7.608 0 01-5.556-2.678L7.27 18.088a1.64 1.64 0 01-1.633 1.531A1.64 1.64 0 014 17.976a1.64 1.64 0 011.636-1.643c.436 0 .831.17 1.124.449l2.61-1.024a7.655 7.655 0 01-1.006-3.806c0-1.513.437-2.925 1.19-4.113L7.493 6.286a1.64 1.64 0 01-2.401-1.453A1.64 1.64 0 016.727 3.19a1.64 1.64 0 011.604 1.974l2.078 1.566A7.602 7.602 0 0116 4.286c.835 0 1.639.134 2.391.383l.271-.863a1.641 1.641 0 01-.48-1.163A1.64 1.64 0 0119.818 1zM16 6.389c-3.06 0-5.542 2.49-5.542 5.563 0 3.073 2.481 5.564 5.542 5.564 3.06 0 5.542-2.49 5.542-5.564C21.542 8.88 19.06 6.39 16 6.39zm2.182 6.659c.602 0 1.09.49 1.09 1.095s-.488 1.095-1.09 1.095c-.603 0-1.091-.49-1.091-1.095s.488-1.095 1.09-1.095zm-3.818-3.286A1.64 1.64 0 0116 11.405a1.64 1.64 0 01-1.636 1.643 1.64 1.64 0 01-1.637-1.643 1.64 1.64 0 011.637-1.643zm3.818 0c.602 0 1.09.49 1.09 1.095s-.488 1.095-1.09 1.095c-.603 0-1.091-.49-1.091-1.095s.488-1.095 1.09-1.095z"/></svg>