<svg xmlns="http://www.w3.org/2000/svg" width="32" height="24"><g fill="none" fill-rule="evenodd"><path fill="#1E407B" d="M21.58 1.66L16 12l10.94 4.91c.8-4.58.66-7.52-.14-9.1a21.76 21.76 0 00-5.22-6.15z"/><path fill="#FFF" fill-opacity=".793" d="M21.58 1.66L16 12l10.94 4.91c.8-4.58.66-7.52-.14-9.1a21.76 21.76 0 00-5.22-6.15z"/><path fill="#579FD2" fill-rule="nonzero" d="M21.7 1.44A12 12 0 0128 12a11.85 11.85 0 01-1.06 4.93l-2.19-1a9.58 9.58 0 00-4.19-12.38zm-2.291 4.236l.19.107a7.2 7.2 0 012.931 9.157l-1.83-.82a5.15 5.15 0 00-2.28-6.68l.989-1.764zM17.13 9.9A2.39 2.39 0 0118.4 12c0 .344-.07.685-.21 1L16 12z"/><path fill="currentColor" fill-rule="nonzero" d="M8.254 2.824A12 12 0 0121.7 1.44l-1.14 2.11a9.59 9.59 0 104.19 12.38l2.19.98A12 12 0 118.254 2.824zm3.099 3.672a7.2 7.2 0 018.067-.836l-.96 1.78a5.22 5.22 0 102.28 6.68l1.83.82a7.2 7.2 0 11-11.217-8.444zM16 9.6c.396 0 .786.103 1.13.3L16 12l2.19 1A2.4 2.4 0 1116 9.6z"/></g></svg>