<svg xmlns="http://www.w3.org/2000/svg" width="32" height="24"><g fill="none" fill-rule="evenodd"><path fill="currentColor" d="M16 0c1.183 0 2.326.171 3.405.49l-1.159 2.174A9.6 9.6 0 1016 21.6a9.604 9.604 0 009.122-6.6h2.5c-1.332 5.176-6.03 9-11.622 9-6.627 0-12-5.373-12-12S9.373 0 16 0zm0 4.8c.361 0 .717.027 1.064.078L16.038 6.8H16a5.2 5.2 0 104.248 8.2h2.3A7.201 7.201 0 1116 4.8zm.21 9.59l-.046.004a2.4 2.4 0 01-1.748-4.197 3.998 3.998 0 001.795 4.193z"/><path fill="#FFF" d="M22 4h2v4h-2zM22 9h2v2h-2z"/><path fill="#B4083A" d="M21.235 1.309l-4.666 8.75A2 2 0 0018.333 13h9.334a2 2 0 001.764-2.941l-4.666-8.75a2 2 0 00-3.53 0z"/><path fill="#FFF" d="M24 9v2h-2V9h2zm0-5v4h-2V4h2z"/></g></svg>