<?xml version="1.0" encoding="UTF-8"?>
<svg viewBox="0 0 24 24" version="1.1" xmlns="http://www.w3.org/2000/svg" xmlns:xlink="http://www.w3.org/1999/xlink">
    <title>Icon/24x24/nav contactTracing ON Copy 2</title>
    <g id="Icon/24x24/nav-contactTracing-ON-Copy-2" stroke="none" stroke-width="1" fill="none" fill-rule="evenodd">
        <g id="Group-10-Copy" stroke="#C84B28" stroke-width="2.4">
            <g id="Group-7" transform="translate(0.000000, 0.589145)">
                <circle id="Oval" cx="12" cy="12" r="10.8"></circle>
            </g>
            <g id="Group-7-Copy" transform="translate(0.000000, 0.589145)">
                <circle id="Oval" cx="12" cy="12" r="10.8"></circle>
            </g>
        </g>
        <path d="M10.4,8 C10.8418278,8 11.2,8.3581722 11.2,8.8 L11.2,17.2 C11.2,17.6418278 10.8418278,18 10.4,18 L8.8,18 C8.3581722,18 8,17.6418278 8,17.2 L8,8.8 C8,8.3581722 8.3581722,8 8.8,8 L10.4,8 Z M15.2,8 C15.6418278,8 16,8.3581722 16,8.8 L16,17.2 C16,17.6418278 15.6418278,18 15.2,18 L13.6,18 C13.1581722,18 12.8,17.6418278 12.8,17.2 L12.8,8.8 C12.8,8.3581722 13.1581722,8 13.6,8 L15.2,8 Z" id="Combined-Shape" fill="#C94C29"></path>
    </g>
</svg>