<svg width="32" height="24" xmlns="http://www.w3.org/2000/svg" xmlns:xlink="http://www.w3.org/1999/xlink"><defs><path d="M16 0a.923.923 0 00-.924.924v.158c0 .441-.31.835-.746.906-.21.032-.42.074-.627.12a.906.906 0 01-1.03-.55l-.06-.143a.92.92 0 00-1.206-.5.92.92 0 00-.5 1.205l.061.15a.903.903 0 01-.34 1.118 8.83 8.83 0 00-.53.355.912.912 0 01-1.166-.115l-.11-.112a.926.926 0 00-1.306 0 .926.926 0 000 1.306l.112.11c.311.312.37.807.115 1.167a8.83 8.83 0 00-.355.53c-.232.374-.714.51-1.12.341l-.148-.06a.923.923 0 10-.707 1.705l.145.058c.404.169.648.601.55 1.03-.046.207-.088.417-.122.627-.07.435-.463.746-.904.746h-.158a.923.923 0 100 1.848h.158c.441 0 .835.31.906.746.032.21.074.42.12.627a.906.906 0 01-.55 1.03l-.143.06a.92.92 0 00-.5 1.206.92.92 0 001.205.5l.15-.061a.91.91 0 011.12.34c.112.181.23.359.353.532a.906.906 0 01-.113 1.164l-.114.112a.924.924 0 001.306 1.304l.112-.11c.312-.311.805-.372 1.165-.114.172.123.35.242.53.355a.91.91 0 01.343 1.12l-.062.145a.924.924 0 101.707.71l.058-.146c.169-.404.601-.648 1.03-.551.207.047.415.088.627.123.433.067.744.461.744.902v.158a.923.923 0 101.848 0v-.158c0-.441.31-.835.746-.906.21-.032.42-.074.627-.12a.906.906 0 011.03.55l.06.143a.92.92 0 001.206.5.92.92 0 00.5-1.205l-.061-.15a.91.91 0 01.34-1.12c.181-.112.359-.23.532-.353a.906.906 0 011.164.113l.112.114a.924.924 0 001.304-1.306l-.11-.112c-.311-.312-.372-.805-.114-1.165.123-.172.242-.35.355-.532a.91.91 0 011.12-.341l.145.062a.924.924 0 10.71-1.707l-.146-.058c-.404-.169-.648-.601-.551-1.03.047-.207.088-.415.123-.627.067-.433.461-.744.902-.744h.158a.923.923 0 100-1.848h-.158c-.441 0-.835-.31-.906-.746-.032-.21-.074-.42-.12-.627a.906.906 0 01.55-1.03l.143-.06a.92.92 0 00.5-1.206.92.92 0 00-1.205-.5l-.15.061a.91.91 0 01-1.12-.34 9.622 9.622 0 00-.353-.532.906.906 0 01.113-1.164l.114-.112a.926.926 0 000-1.307.926.926 0 00-1.306 0l-.11.115c-.312.311-.807.372-1.167.115a9.657 9.657 0 00-.532-.355c-.372-.232-.508-.714-.34-1.12l.061-.148a.923.923 0 10-1.705-.707l-.06.145c-.169.404-.601.648-1.03.55a11.623 11.623 0 00-.627-.122c-.435-.07-.744-.463-.744-.904V.924A.923.923 0 0016 0zm0 4.617a7.38 7.38 0 017.32 6.46h-5.723A1.843 1.843 0 0016 10.154h-.002l-2.862-4.963A7.375 7.375 0 0116 4.617zm-4.459 1.505l2.862 4.954a1.832 1.832 0 000 1.843l-2.864 4.956a7.366 7.366 0 01.002-11.753zm6.056 6.802h5.724a7.38 7.38 0 01-10.185 5.884l2.862-4.963H16c.66 0 1.268-.352 1.597-.921z" id="a"/></defs><use fill="currentColor" xlink:href="#a" fill-rule="evenodd"/></svg>