<svg xmlns="http://www.w3.org/2000/svg" viewBox="0 0 55.73 53"><g data-name="Layer 2"><g data-name="Layer 1"><path d="M23.26 52.7C9.43 50.61-1.8 37.54.24 23 2 10.62 12.84 1 25.87.07Q27.28 0 28.73 0a28.46 28.46 0 0118.5 7.52 25.75 25.75 0 018.4 16.38c1.5 16.34-15.18 31.41-32.37 28.8" fill="#f4f7fa"/><path d="M24.13 47.73C12.93 46 3.83 35.45 5.48 23.67c1.41-10 10.21-17.85 20.77-18.59Q27.4 5 28.57 5a23.06 23.06 0 0115 6.09 20.86 20.86 0 016.81 13.27C51.6 37.6 38.08 49.81 24.15 47.7" fill="#df2f2f"/><path d="M38.31 23.5a1.87 1.87 0 011.84 1.84v1.84A1.87 1.87 0 0138.31 29H30v8.29a1.87 1.87 0 01-1.84 1.84h-1.82a1.87 1.87 0 01-1.84-1.84V29h-8.28a1.87 1.87 0 01-1.84-1.84v-1.82a1.87 1.87 0 011.84-1.84h8.28v-8.28a1.87 1.87 0 011.84-1.84h1.84A1.87 1.87 0 0130 15.22v8.28z" fill="#fff"/></g></g></svg>