<svg xmlns="http://www.w3.org/2000/svg" viewBox="0 0 55.73 53"><g data-name="Layer 2"><g data-name="Layer 1"><path d="M23.26 52.7C9.43 50.61-1.8 37.54.24 23 2 10.62 12.84 1 25.87.07Q27.28 0 28.73 0a28.47 28.47 0 0118.5 7.52 25.75 25.75 0 018.4 16.38c1.5 16.34-15.18 31.41-32.37 28.8" fill="#f4f7fa"/><path d="M36.66 25a4.94 4.94 0 014.94 4.94V37a.68.68 0 01-.65.71h-1.47a.68.68 0 01-.71-.65.47.47 0 010-.05v-2.16H16.18V37a.68.68 0 01-.65.71h-1.46a.68.68 0 01-.71-.65.46.46 0 010-.05V21.44a.68.68 0 01.65-.71h1.47a.68.68 0 01.71.65V32h8.47v-6.32a.68.68 0 01.65-.71h11.35zm-16.24 5.62a2.86 2.86 0 112-.84 2.71 2.71 0 01-2 .84zm-1.06-11.3A.38.38 0 0119 19v-.71a.38.38 0 01.35-.35h6.22a.31.31 0 01.31.18l.88 1.77L29 15.48a.68.68 0 011.24 0l1.24 2.43h4.5a.71.71 0 010 1.41h-5.41l-1-1.94-2.21 4.37a.68.68 0 01-1.24 0l-1.24-2.43z" fill="#578fcc"/></g></g></svg>