<?xml version="1.0" encoding="UTF-8"?>
<svg width="56px" height="57px" viewBox="0 0 56 57" version="1.1" xmlns="http://www.w3.org/2000/svg" xmlns:xlink="http://www.w3.org/1999/xlink">
    <title>Icon/56x56/Call-Back</title>
    <g id="Components" stroke="none" stroke-width="1" fill="none" fill-rule="evenodd">
        <g id="Card/120/Card-Call-Back" transform="translate(-16.000000, -32.000000)">
            <g id="Group" transform="translate(16.000000, 32.250000)">
                <g id="Group-13" fill="#F3F6F9">
                    <circle id="Oval" cx="28" cy="28" r="28"></circle>
                </g>
                <g id="Phone-(2)" transform="translate(14.000000, 13.000000)" fill="#353B79" fill-rule="nonzero">
                    <path d="M13.4,26.9 L9.9,29 C8.8,29.7 7.3,29.6 6.4,28.6 C-1.2,20.9 -1.2,8.6 6.4,1 C7.4,-2.18380869e-13 8.8,-0.1 9.9,0.6 L13.3,2.7 C14.5,3.4 15,4.9 14.4,6.2 L12.7,10.5 C12.2,11.7 11,12.4 9.8,12.3 L8.5,12.2 C8.1,14 8.1,15.8 8.5,17.5 L9.8,17.4 C11.1,17.3 12.3,18 12.7,19.2 L14.4,23.5 C15,24.7 14.5,26.1 13.4,26.9 Z M11.7,24.4 L10,20.2 L6.3,20.6 C4.8,16.3 4.8,13.3 6.3,9 L10,9.4 L11.7,5.2 L8.4,3.1 C2,9.6 2,20 8.4,26.5 L11.7,24.4 Z M19,10.9 C19.7,11.9 20.2,13.1 20.2,14.4 C20.2,15.7 19.8,16.9 19,17.9 C18.7,18.3 18.2,18.3 17.9,18 L17.2,17.3 C16.9,17 16.9,16.7 17.1,16.4 C17.5,15.8 17.7,15.2 17.7,14.5 L17.7,14.5 C17.7,14.5 17.7,14.5 17.7,14.5 C17.7,13.8 17.5,13.1 17.1,12.6 C16.9,12.3 16.9,11.9 17.2,11.7 L17.9,11 C18.2,10.5 18.8,10.5 19,10.9 Z M21.8,8.1 C23.2,9.8 24.1,12 24.1,14.4 C24.1,16.8 23.2,19 21.8,20.7 C21.5,21 21,21 20.7,20.7 L20,20.1 C19.7,19.8 19.7,19.4 20,19.1 C21.1,17.8 21.7,16.1 21.7,14.4 C21.7,12.7 21.1,11 20,9.7 C19.8,9.4 19.8,9 20,8.7 L20.7,8 C21,7.7 21.5,7.8 21.8,8.1 Z M24.5,5.3 C26.7,7.7 28,10.9 28,14.4 C28,17.9 26.7,21.1 24.5,23.5 C24.2,23.8 23.7,23.8 23.4,23.5 L22.7,22.8 C22.4,22.5 22.4,22.1 22.7,21.8 C24.5,19.7 25.5,17.1 25.5,14.4 C25.5,11.7 24.5,9 22.7,7 C22.4,6.7 22.5,6.3 22.7,6 L23.4,5.3 C23.8,5 24.2,5 24.5,5.3 Z" id="Shape"></path>
                </g>
            </g>
        </g>
    </g>
</svg>