<svg width="56" height="56" xmlns="http://www.w3.org/2000/svg"><defs><linearGradient x1="0%" y1="42.545%" x2="100%" y2="42.545%" id="a"><stop stop-color="#FDC242" offset="0%"/><stop stop-color="#F06F51" offset="100%"/></linearGradient></defs><g fill="none" fill-rule="evenodd"><circle fill="#F3F6F9" cx="28" cy="28" r="28"/><path d="M37.804 25.68a1.007 1.007 0 000-1.474l-1.41-1.407a1.004 1.004 0 00-1.42-.055l-.052.055-9.605 9.6-4.482-4.483a1.01 1.01 0 00-1.425-.049l-.047.049-1.41 1.41a1.004 1.004 0 000 1.471l6.66 6.66a.934.934 0 001.409 0L37.804 25.68zm2.5 7.62a26.922 26.922 0 01-5.635 8.068 18.904 18.904 0 01-6.147 4.163 2.741 2.741 0 01-2.306 0 19.06 19.06 0 01-6.724-4.74 25.645 25.645 0 01-5.314-8.258A29.612 29.612 0 0112 21.197a3.045 3.045 0 01.512-1.729 2.75 2.75 0 011.409-1.088l12.294-5.124a2.72 2.72 0 012.306 0l12.294 5.124c.577.195 1.072.58 1.409 1.088.34.511.519 1.114.512 1.73a29.612 29.612 0 01-2.433 12.1z" fill="url(#a)"/></g></svg>