<?xml version="1.0" encoding="UTF-8"?>
<svg viewBox="0 0 56 56" version="1.1" xmlns="http://www.w3.org/2000/svg" xmlns:xlink="http://www.w3.org/1999/xlink">
    <title>Totaltests</title>
    <g id="Components" stroke="none" stroke-width="1" fill="none" fill-rule="evenodd">
        <g id="Card/304+/Card-Key-Figures" transform="translate(-16.000000, -20.000000)">
            <g id="Row2" transform="translate(16.000000, 18.000000)">
                <g id="Totaltests" transform="translate(0.000000, 2.000000)">
                    <g id="Group-3" transform="translate(15.000000, 15.000000)"></g>
                    <circle id="Oval" fill="#F3F6F9" cx="28" cy="28" r="28"></circle>
                    <g id="Total-Tests" transform="translate(13.000000, 6.000000)" fill="#448ECC" fill-rule="nonzero">
                        <g id="Group">
                            <path d="M20.2,28 C19.5,28 18.9,28.6 18.9,29.3 C18.9,30 19.5,30.6 20.2,30.6 C20.9,30.6 21.5,30 21.5,29.3 C21.5,28.6 21,28 20.2,28 Z" id="Path"></path>
                            <path d="M30.6,36.8 L1.1,36.8 C0.5,36.8 0,37.3 0,37.9 L0,39.9 C0,40.5 0.5,41 1.1,41 L30.6,41 C31.2,41 31.7,40.5 31.7,39.9 L31.7,37.9 C31.7,37.4 31.2,36.8 30.6,36.8 Z" id="Path"></path>
                            <path d="M2.9,29 L16.2,29 L17.5,27.2 C17.6,27.1 17.7,26.9 17.9,26.8 L18.1,26.6 L2.9,26.6 C2.6,26.6 2.3,26.7 2,27 C1.8,27.2 1.6,27.5 1.6,27.8 C1.6,28.4 2.2,29 2.9,29 Z" id="Path"></path>
                            <rect id="Rectangle" x="8.1" y="20.9" width="4.4" height="2.2"></rect>
                            <rect id="Rectangle" x="8.9" y="0.5" width="2.9" height="1.4"></rect>
                            <path d="M20.2,26.5 C19.3,26.5 18.6,26.9 18.1,27.6 L11.7,36.1 L28.8,36.1 L22.4,27.6 C21.9,26.9 21.1,26.5 20.2,26.5 Z M20.2,30.6 C19.5,30.6 18.9,30 18.9,29.3 C18.9,28.6 19.5,28 20.2,28 C20.9,28 21.5,28.6 21.5,29.3 C21.5,30 21,30.6 20.2,30.6 Z" id="Shape"></path>
                            <path d="M11.4,6.8 C11.4,8.3 12.6,9.5 14.1,9.5 C15.6,9.5 16.8,8.3 16.8,6.8 C16.8,5.3 15.6,4.1 14.1,4.1 C12.6,4.1 11.4,5.3 11.4,6.8 Z" id="Path"></path>
                            <path d="M17.2,8.1 C17.6,8 18.1,8 18.5,8 C24.3,8 29,12.7 29,18.5 C29,22.3 26.9,25.8 23.5,27.7 L23.4,27.8 L25.4,30.4 L25.5,30.3 C29.7,27.8 32.3,23.3 32.3,18.5 C32.3,10.9 26.1,4.8 18.6,4.8 C18.1,4.8 17.5,4.8 16.9,4.9 C17.3,5.5 17.6,6.2 17.6,6.9 C17.5,7.3 17.4,7.7 17.2,8.1 Z" id="Path"></path>
                            <path d="M14.1,10.2 C12.2,10.2 10.7,8.7 10.7,6.8 C10.7,5 12.2,3.4 14,3.4 C13.9,3 13.6,2.8 13.2,2.8 L7.4,2.8 C6.9,2.8 6.5,3.2 6.5,3.7 L6.5,14.6 L14,14.6 L14,10.2 L14.1,10.2 Z" id="Path"></path>
                            <path d="M7.5,20.1 L13.2,20.1 C13.7,20.1 14.1,19.7 14.1,19.2 L14.1,15.2 L6.6,15.2 L6.6,19.2 C6.6,19.7 7,20.1 7.5,20.1 Z" id="Path"></path>
                        </g>
                    </g>
                </g>
            </g>
        </g>
    </g>
</svg>