<svg xmlns="http://www.w3.org/2000/svg" xmlns:xlink="http://www.w3.org/1999/xlink" width="219" height="40"><defs><path id="a" d="M0 36h166.746V0H0z"/></defs><g transform="translate(25.96 2.486)" fill="none" fill-rule="evenodd"><mask id="b" fill="#fff"><use xlink:href="#a"/></mask><path fill="#FEFEFE" d="M0 24.5C0 20.044 3.03 17 6.824 17c2.428 0 4.074 1.24 5.138 2.87l-1.405.847C9.794 19.5 8.41 18.61 6.824 18.61c-2.87 0-5.099 2.435-5.099 5.891 0 3.435 2.228 5.892 5.099 5.892 1.586 0 2.97-.87 3.733-2.11l1.425.849C10.858 30.782 9.252 32 6.824 32 3.03 32 0 28.957 0 24.5m24.963-5.891c-3.168 0-5.174 2.5-5.174 5.891 0 3.37 2.006 5.892 5.174 5.892 3.146 0 5.172-2.522 5.172-5.892 0-3.391-2.026-5.891-5.172-5.891m0-1.609c4.158 0 6.988 3.218 6.988 7.5 0 4.283-2.83 7.5-6.988 7.5-4.183 0-6.99-3.217-6.99-7.5 0-4.282 2.807-7.5 6.99-7.5m11.981 0h1.927l4.563 12.089L47.997 17h1.927l-5.455 14H42.38zm18.971 14h1.997V17h-1.997zm13.779-1.553c3.405 0 5.381-2.435 5.381-5.436 0-3.023-1.912-5.458-5.381-5.458h-3.047v10.894h3.047zM64.9 17h4.793c4.351 0 7.189 3.044 7.189 7.01 0 3.989-2.838 6.99-7.19 6.99H64.9V17zm29.51 9.34h5.862l-2.92-7.786-2.942 7.787zm6.37 1.554h-6.856L92.727 31h-1.866l5.436-14h2.09l5.455 14h-1.866l-1.197-3.106zM110.831 17h1.688v12.447h6.3V31h-7.988zm13.979 0h8.986v1.553h-7.279v4.513h7.135v1.553h-7.135v4.828h7.279V31h-8.986zm21.297 1.553h-3.61v5.353h3.61c1.63 0 2.744-1.113 2.744-2.687 0-1.574-1.114-2.666-2.744-2.666zm-.865 6.885h-2.744V31h-1.713V17h5.53c2.516 0 4.31 1.638 4.31 4.219 0 2.519-1.69 3.904-3.568 4.072L150.77 31h-2.022l-3.506-5.562zm15.682-6.885h-4.163V17h9.985v1.553h-4.184V31h-1.638zM60.283 10.527c.322.46.75.86 1.424.86.975 0 1.575-.742 1.575-1.803V4h.62v5.584c0 1.638-.974 2.416-2.162 2.416-.772 0-1.36-.295-1.831-.966l.374-.507zM67.896 4h4.993v.545H68.57v2.593h4.235v.546H68.57v2.77h4.319V11h-4.993zm11.635.545h-2.03v3.012h2.03c.955 0 1.606-.629 1.606-1.51 0-.882-.65-1.502-1.606-1.502zm-.434 3.558h-1.595V11h-.62V4h2.704c1.248 0 2.203.765 2.203 2.046 0 1.27-.934 1.974-2.008 2.016L81.875 11h-.748l-2.03-2.897zm6.157 2.169c.447.58 1.174 1.125 2.16 1.125 1.421 0 1.826-.881 1.826-1.542 0-1.09-.934-1.391-1.899-1.68-1.09-.337-2.253-.685-2.253-2.111C85.088 4.8 86.105 4 87.362 4c1.027 0 1.805.406 2.345 1.09l-.394.487c-.498-.672-1.204-.974-1.982-.974-.924 0-1.62.591-1.62 1.426 0 .916.862 1.183 1.806 1.472 1.11.348 2.346.742 2.346 2.32 0 .985-.591 2.179-2.46 2.179-1.142 0-2.003-.51-2.532-1.229l.383-.499zM93.857 4h4.992v.545H94.53v2.593h4.236v.546H94.53v2.77h4.319V11h-4.992zm10.687 4.009L101.845 4h.703l2.292 3.442L107.132 4h.704l-2.701 4.009V11h-.591z" mask="url(#b)"/><g fill="#FEFEFE" mask="url(#b)" opacity=".305"><path d="M93.424 14.807l-.804-.451c-.924-.518-2.157-.962-3.564-1.286a21.865 21.865 0 00-9.612-.002c-1.404.32-2.635.764-3.561 1.28l-.789.442c0 5.003-1.639 15.42 9.164 21.373 10.782-5.944 9.166-16.104 9.166-21.356m-9.303 16.814s0-.234.195-.279c0 0 .047-.004.052-.026.007-.022-.13-.081-.223-.03 0 0 .046-.232.248-.195 0 0 .067-.1.175-.053.079.033.365.154.491.186.102.026.713.11.715-.087.002-.197-.359-.103-.465-.103-.1 0-.253-.129-.331-.242.117.027.237.062.342.105.07.03.144.044.219.044.066 0 .11-.012.12-.013l.368-.107s.12-.035.23-.012c.025.082.069.215.112.314.068.153.247.44-.192.454-.438.014-.66.064-.72.118 0 0 .034-.132.089-.157.001 0-.089-.007-.254.043-.158.049-.221.16-.221.16s-.031-.133-.003-.167c-.008.01-.13.166-.315.15-.2-.02-.416.063-.469.201 0 0-.104-.256.112-.323 0 0 .045-.02-.009-.038-.053-.016-.2-.029-.266.057m-4.334-2.916c-.055-.028-.065-.066-.065-.066s-.06-.101-.169-.02c0 0 .012-.12.166-.148.043-.007.063-.008.066-.014.003-.006-.024-.115-.199-.062 0 0 .14-.16.292-.139 0 0 .064-.035.129-.026.072.01.197.01.352.527.155.517.748.772.917.732 0 0-.004.044-.018.081 0 0 .074.038.205.017.037.057.071.107.101.142a.445.445 0 00.367.169v-.004l.003.004h.01l.003-.004v.004a.444.444 0 00.367-.17c.082-.096.21-.314.275-.449.073.069.312.274.632.274.385 0 .854-.252 1.103-.157 0 0-.195.04-.125.165s.501-.212 1.646-.212c.625 0 1.68.376 1.771-.178.014-.104-.036-.182-.134-.22 0 0 .061.129-.008.25 0 0 .025-.314-.578-.314-.606 0-1.193.184-1.83.184-.635 0-.887-.263-.887-.553 0-.29.326-.467.65-.467.323 0 1.036.187 1.53.187.183.002.299-.139.34-.215.038-.076.096-.122.156-.124 0 0-.07.15.036.131.064-.01.147-.192.154-.24 0 0 .151.234-.02.423-.048.054-.119.103-.187.103-.069 0-.15-.047-.282-.016-.133.03-.234.041-.519.041-.283 0-.848-.128-1.14-.128-.289 0-.496.101-.496.337 0 .236.298.36.659.36.36 0 1.68-.231 1.892-.231.213 0 .87.065.87.532 0 .469-.645.574-.95.574 0 0-.424-.12-.575-.097 0 0 .438.166.653.29.213.124.436.236.729.258.294.02.789.024.888.032.099.007.154.033.185.147.03.114.085.195.085.195s-.055.028-.16-.13c0 0-.003.145.166.308.17.163.105.296.105.296s-.164-.25-.34-.246c0 0 .189.195.253.342.081.192.09.345.09.345s-.144-.007-.18-.06c0 0 .01-.07-.017-.116 0 0-.02.276-.268.425 0 0 .024-.082-.01-.183 0 0-.062.101-.19.13-.13.029-.189.04-.22.072 0 0 .008-.07.058-.11 0 0 .063-.059.088-.056 0 0-.178-.06-.346.093-.167.153-.216.14-.323.147-.105.008-.165.069-.165.069s-.022-.175.105-.239c0 0 .04-.017.005-.036-.06-.034-.18.09-.196.145 0 0-.077-.212.093-.273 0 0 .069-.03.055-.052-.036-.063-.16-.04-.22.027 0 0-.01-.176.121-.245.043-.023.102-.035.182-.023.067.01.278.119.48.119.204 0 .246-.29.246-.29s.09.265-.226.442c0 0 .358-.102.358-.399 0-.297-.471-.374-.748-.374 0 0 .532-.241.806.104 0 0-.119-.287-.447-.287s-.513.147-.771.147c-.259 0-.548-.105-.548-.105s.085.181.166.238c0 0-.142.005-.354-.114-.134-.076-.278-.077-.43-.068-.157.012-.313.098-.435.124 0 0-.112.032-.247-.024-.373-.155-.925-.205-.925-.205s.075.073.075.133c-.86-.137-1.572.285-1.572.285s.068-.273.248-.376c0 0-.356.095-.466.561-.064.214-.24.223-.24.223s.116-.208.075-.3c0 0-.432.358-.572.399-.171.05-.269-.041-.269-.041.185-.03.3-.27.402-.248 0 0-.154-.115-.39.062-.236.178-.318.17-.367.145-.196-.103-.65-.251-.882-.254l-.179-.003s.175-.145-.021-.15c-.196-.005-.204-.003-.241-.038-.038-.036-.09-.15-.223-.037 0 0-.014-.153.155-.18.016-.002.018-.029-.008-.031-.024-.003-.057-.058-.092-.07-.035-.01-.146-.003-.193.04 0 0 .002-.16.159-.19.022-.005.004-.034-.017-.042-.02-.01-.04-.046-.07-.081-.031-.035-.124-.016-.157-.006 0 0 .031-.162.19-.132 0 0 .17-.137.281-.022.111.114.217.223.291.301.076.078.185.197.355.24.17.042.606.185.514.078 0 0 .69-.048.811-.294 0 0 .025.118.015.163 0 0 .145-.659.646-.714 0 0-.382-.08-.604.385 0 0-.012-.02-.018-.047l-.142.167s-.086-.08-.071-.212c0 0-.049.04-.05.098 0 0-.072-.182-.024-.313 0 0-.065.01-.086.056 0 0-.061-.136-.05-.228 0 0-.142.253.192.725 0 0-.112-.141-.326-.177-.215-.036-.355-.121-.398-.176 0 0 .171.022.134-.071-.081-.201-1.022-.653-1.022-.653s.078-.07.137-.055c0 0-.184-.323-.361-.372-.178-.049-.234-.152-.257-.212-.024-.06-.102-.11-.174-.074 0 0 .019-.127.14-.11.052.008.071.01.061.005m6.641-2.674c.003-.282-.514-.148-.665-.148-.144 0-.363-.183-.476-.345.17.039.342.088.491.15a.806.806 0 00.483.043l.528-.152s.173-.05.33-.017c.036.117.098.309.161.45.097.218.352.63-.275.649-.628.02-.944.091-1.03.17 0 0 .048-.19.126-.225a1.072 1.072 0 00-.363.062c-.226.068-.315.228-.315.228s-.045-.191-.005-.24c-.012.016-.186.238-.451.214-.287-.028-.595.091-.67.289 0 0-.15-.367.158-.462 0 0 .066-.03-.012-.055-.077-.023-.286-.04-.381.082 0 0 0-.335.28-.4 0 0 .067-.004.076-.037.007-.032-.19-.117-.32-.044 0 0 .065-.331.353-.279 0 0 .096-.142.251-.075.113.049.524.22.702.267.147.037 1.021.158 1.024-.125m-4.484 3.754h-.01c-.126-.004-.202-.027-.288-.12a2.541 2.541 0 01-.288-.446.577.577 0 01-.027-.347c.026-.135-.03-.2-.03-.2-.018.02-.03.128-.03.128-.015-.055-.198-.494-.077-.509.121-.015.253.084.253.084s.207-.085.53-.085c.322 0 .454.085.454.085s.132-.099.253-.084c.122.015-.061.454-.075.509 0 0-.014-.108-.031-.128 0 0-.05.065-.024.2a.583.583 0 01-.033.347c-.043.093-.2.35-.289.446-.085.093-.162.116-.288.12m-4.083-7.233c-.08-.04-.092-.096-.092-.096s-.085-.144-.242-.026c0 0 .016-.174.237-.213.062-.011.091-.012.094-.02.005-.01-.034-.164-.284-.09 0 0 .2-.227.417-.198 0 0 .093-.05.185-.037.102.015.281.015.504.754.223.74 1.07 1.104 1.31 1.048 0 0-.005.062-.023.116 0 0 .105.054.293.024.051.08.102.153.144.202.163.193.322.235.525.242v-.005l.005.005h.014l.004-.005v.005c.203-.007.362-.05.525-.242.117-.137.3-.45.395-.643.102.099.445.39.903.39.552 0 1.22-.36 1.579-.223 0 0-.28.057-.18.236.101.179.719-.302 2.356-.302.894 0 2.403.537 2.534-.256.019-.149-.052-.26-.193-.315 0 0 .089.185-.011.359 0 0 .036-.45-.828-.45-.865 0-1.706.263-2.616.263-.91 0-1.27-.376-1.27-.79 0-.415.466-.67.929-.67s1.482.269 2.189.269c.263.003.429-.2.486-.31.057-.106.14-.172.225-.176 0 0-.101.215.05.188.093-.015.21-.276.222-.344 0 0 .215.334-.03.606-.068.077-.17.146-.267.146-.098 0-.214-.066-.405-.022-.19.043-.334.06-.74.06-.408 0-1.215-.185-1.63-.185-.416 0-.712.145-.712.483 0 .339.426.515.942.515.517 0 2.405-.332 2.709-.332.304 0 1.243.094 1.243.764 0 .669-.92.819-1.357.819 0 0-.608-.171-.824-.138 0 0 .626.238.933.415.307.177.625.337 1.045.368.42.031 1.127.035 1.27.046.142.012.221.047.264.21.044.163.123.28.123.28s-.079.04-.23-.186c0 0-.004.208.238.44.242.233.15.426.15.426s-.233-.358-.485-.353c0 0 .27.278.36.49.118.273.129.493.129.493s-.207-.01-.256-.087c0 0 .013-.1-.026-.167 0 0-.028.395-.382.61 0 0 .033-.118-.015-.262 0 0-.09.145-.274.186-.183.04-.269.057-.314.104 0 0 .013-.103.085-.16 0 0 .09-.083.125-.08 0 0-.256-.085-.495.134-.24.219-.309.2-.46.21-.152.012-.237.099-.237.099s-.033-.25.148-.341c0 0 .06-.024.008-.053-.086-.047-.257.129-.28.208 0 0-.111-.303.133-.39 0 0 .097-.042.079-.075-.053-.09-.23-.057-.315.039 0 0-.013-.252.172-.35.063-.034.147-.05.262-.034.096.014.397.171.687.171.289 0 .35-.416.35-.416s.13.38-.323.634c0 0 .514-.146.514-.571 0-.425-.675-.536-1.07-.536 0 0 .76-.345 1.152.15 0 0-.17-.412-.64-.412s-.734.21-1.103.21c-.37 0-.785-.15-.785-.15s.122.26.238.34c0 0-.203.009-.506-.163-.191-.107-.397-.109-.616-.096-.223.017-.448.14-.621.177 0 0-.16.046-.354-.035-.534-.222-1.323-.293-1.323-.293s.108.105.108.19c-1.233-.195-2.25.408-2.25.408s.096-.39.355-.538c0 0-.51.136-.667.802-.09.307-.344.32-.344.32s.165-.297.107-.43c0 0-.618.513-.817.571-.246.072-.386-.058-.386-.058.265-.043.428-.386.575-.354 0 0-.22-.164-.557.088-.338.253-.457.245-.525.208-.281-.148-.93-.36-1.263-.364l-.256-.005s.25-.206-.03-.214c-.281-.007-.291-.004-.345-.055-.055-.05-.13-.214-.319-.052 0 0-.02-.22.222-.259.023-.002.025-.039-.01-.043-.036-.005-.083-.084-.134-.099-.05-.015-.209-.006-.276.057 0 0 .002-.231.227-.272.031-.007.006-.049-.024-.062-.029-.013-.056-.065-.1-.115-.044-.05-.176-.022-.224-.009 0 0 .044-.232.272-.188 0 0 .243-.195.402-.032l.417.432c.108.11.264.28.506.342.244.06.867.265.738.11 0 0 .985-.066 1.158-.419 0 0 .036.169.022.235 0 0 .209-.944.925-1.023 0 0-.547-.113-.864.55 0 0-.017-.026-.025-.066l-.205.24s-.122-.115-.102-.305c0 0-.07.059-.07.141 0 0-.105-.26-.036-.447 0 0-.093.011-.122.079 0 0-.088-.194-.073-.326 0 0-.202.36.277 1.037 0 0-.161-.203-.468-.254-.306-.051-.507-.173-.569-.25 0 0 .246.03.191-.103-.115-.287-1.46-.934-1.46-.934s.111-.099.195-.08c0 0-.263-.46-.517-.531-.253-.07-.335-.218-.368-.303-.034-.086-.145-.156-.248-.105 0 0 .026-.184.2-.158.074.01.102.014.087.007m8.775-2.748c.002-.309-.565-.163-.73-.163-.156 0-.396-.2-.52-.378.185.043.374.097.538.165.11.046.225.07.342.07.103 0 .174-.02.187-.023l.578-.166s.19-.055.361-.02c.04.13.107.34.176.494.107.239.387.688-.301.71-.688.023-1.035.1-1.128.187 0 0 .053-.208.138-.247.002 0-.138-.01-.398.068-.247.076-.345.25-.345.25s-.05-.21-.005-.262c-.013.017-.204.26-.495.233-.313-.03-.65.1-.734.318 0 0-.163-.403.175-.506 0 0 .07-.035-.014-.061-.084-.026-.314-.045-.417.09 0 0 0-.367.306-.437 0 0 .073-.007.083-.042.01-.035-.206-.128-.35-.048 0 0 .071-.363.387-.306 0 0 .105-.156.275-.082.123.054.573.243.768.293.161.04 1.12.172 1.123-.137m-5.688 4.292h-.014c-.181-.006-.29-.038-.413-.172a3.436 3.436 0 01-.412-.638.823.823 0 01-.039-.495c.037-.194-.044-.288-.044-.288-.025.03-.043.184-.043.184-.02-.078-.281-.707-.108-.728.173-.021.362.12.362.12s.295-.122.757-.122c.461 0 .65.123.65.123s.19-.142.362-.121c.174.021-.088.65-.108.728 0 0-.019-.154-.043-.184 0 0-.072.094-.034.288a.826.826 0 01-.048.495c-.06.134-.286.502-.412.638-.123.134-.232.166-.413.172m.724-7.955s-.02-.168-.046-.2c0 0-.078.1-.038.314a.898.898 0 01-.053.542c-.065.147-.313.55-.451.699-.134.147-.254.182-.451.188h-.016c-.198-.006-.317-.041-.453-.188a3.774 3.774 0 01-.45-.699.903.903 0 01-.043-.542c.04-.213-.048-.314-.048-.314-.027.032-.047.2-.047.2-.023-.086-.308-.774-.119-.797.19-.024.397.131.397.131s.323-.133.829-.134c.505 0 .712.134.712.134s.208-.155.397-.131c.189.023-.097.71-.12.797m9.937 3.581s-.256-.392-.531-.386c0 0 .295.304.394.535.13.3.141.542.141.542s-.225-.012-.28-.096c0 0 .015-.108-.028-.182 0 0-.03.433-.42.667 0 0 .037-.13-.016-.286 0 0-.097.158-.298.203-.203.045-.296.064-.345.114 0 0 .013-.112.093-.175 0 0 .098-.09.137-.087 0 0-.28-.094-.543.146-.262.24-.338.22-.504.231-.167.012-.259.108-.259.108s-.035-.274.162-.374c0 0 .065-.026.01-.057-.094-.053-.282.14-.309.227 0 0-.12-.332.146-.428 0 0 .107-.045.087-.082-.056-.097-.25-.062-.344.043 0 0-.015-.275.188-.384a.455.455 0 01.287-.035c.104.014.435.186.752.186s.385-.456.385-.456.141.417-.355.694c0 0 .563-.159.563-.625 0-.466-.739-.587-1.174-.587 0 0 .834-.378 1.263.164 0 0-.186-.45-.7-.45-.515 0-.805.23-1.21.23-.403 0-.858-.164-.858-.164s.133.283.26.373c0 0-.222.008-.554-.18-.21-.118-.435-.12-.674-.106-.244.019-.49.155-.681.195 0 0-.175.05-.387-.038-.585-.243-1.45-.321-1.45-.321s.117.115.117.207c-1.349-.214-2.462.449-2.462.449s.105-.43.387-.59c0 0-.558.148-.73.878-.1.336-.377.35-.377.35s.182-.325.118-.47c0 0-.678.561-.897.625-.268.078-.42-.063-.42-.063.289-.048.468-.424.629-.39 0 0-.241-.18-.611.098-.37.277-.5.268-.575.228-.308-.163-1.017-.394-1.383-.4l-.28-.004s.274-.227-.033-.235c-.308-.009-.32-.005-.38-.06-.058-.055-.139-.234-.347-.057 0 0-.022-.24.242-.284.026-.002.028-.043-.011-.047-.039-.005-.09-.092-.146-.108-.055-.017-.229-.007-.302.062 0 0 .002-.253.248-.298.035-.008.007-.053-.025-.067-.032-.015-.062-.072-.11-.127-.05-.055-.193-.024-.246-.01 0 0 .049-.253.298-.206 0 0 .266-.214.44-.035l.457.473c.118.122.289.308.556.374.265.068.949.291.806.122 0 0 1.081-.073 1.27-.459 0 0 .039.184.024.256 0 0 .228-1.034 1.014-1.119 0 0-.601-.125-.948.601 0 0-.018-.028-.027-.071l-.225.262s-.134-.126-.11-.334c0 0-.077.064-.078.156 0 0-.114-.286-.04-.491 0 0-.1.013-.133.087 0 0-.096-.213-.08-.357 0 0-.222.394.303 1.135 0 0-.177-.22-.513-.278-.335-.056-.555-.19-.623-.275 0 0 .27.035.21-.112-.127-.314-1.6-1.022-1.6-1.022s.122-.109.214-.087c0 0-.288-.506-.566-.583-.279-.077-.367-.238-.403-.332-.038-.093-.16-.171-.272-.115 0 0 .028-.2.22-.173.08.012.11.016.094.008-.087-.044-.1-.105-.1-.105s-.095-.157-.266-.03c0 0 .018-.189.26-.232.067-.012.098-.013.104-.022.004-.01-.04-.18-.312-.098 0 0 .22-.25.456-.216 0 0 .102-.057.202-.042.114.017.31.017.553.827.244.81 1.173 1.207 1.436 1.147 0 0-.005.068-.027.127 0 0 .115.059.322.026.056.089.112.168.157.222.18.21.353.256.575.264v-.005l.006.006h.016l.004-.006v.005c.223-.008.396-.053.575-.264.128-.15.328-.494.432-.704.113.107.488.427.99.427.604 0 1.337-.395 1.73-.245 0 0-.308.063-.197.258.11.196.785-.331 2.58-.331.979 0 2.632.59 2.774-.28.022-.163-.056-.285-.21-.345 0 0 .098.202-.013.393 0 0 .041-.491-.906-.491-.947 0-1.868.287-2.866.287-.997 0-1.39-.412-1.39-.866s.51-.734 1.016-.734c.508 0 1.624.295 2.399.295.288.004.47-.218.533-.338.061-.118.151-.19.245-.194 0 0-.11.235.056.206.1-.017.23-.302.242-.377 0 0 .237.365-.031.663-.076.085-.187.16-.294.16-.107 0-.234-.071-.443-.024-.208.049-.366.066-.811.066-.446 0-1.33-.202-1.786-.202-.454 0-.78.158-.78.529 0 .37.468.564 1.032.564.567 0 2.635-.364 2.968-.364.333 0 1.363.103 1.363.837 0 .733-1.01.897-1.488.897 0 0-.667-.188-.902-.15 0 0 .685.259 1.021.454.336.194.685.369 1.146.403.458.033 1.234.039 1.39.05.155.013.243.052.29.23.047.18.134.308.134.308s-.086.042-.252-.205c0 0-.004.228.26.483.266.254.165.465.165.465m-10.543-3.368l.381-.117-.004-.044s-.342-.169-.428-.169c-.036 0-.064.01-.08.028-.02.023-.02.055-.02.076.001.032 0 .295-.001.387l-.002.087c0 .038-.036.08-.094.076-.041-.002-.107-.002-.143-.002h-.046c-.036 0-.103 0-.144.002a.093.093 0 01-.07-.023.077.077 0 01-.024-.053c0-.014 0-.046-.002-.087 0-.092-.003-.355-.001-.387.001-.021 0-.053-.02-.076-.016-.018-.043-.028-.08-.028-.087 0-.46.169-.46.169l-.005.044.414.117c.003 0 .065.022.065.126v.172c0 .05.016.11.132.165.107.052.184.193.184.263 0 .03-.056.05-.127.077-.076.028-.167.06-.233.123-.01.008-.004.023.009.023h.768c.013 0 .019-.015.01-.023-.066-.063-.158-.095-.234-.123-.07-.026-.127-.047-.127-.077 0-.07.078-.21.185-.263.116-.055.131-.115.131-.165v-.172c0-.104.063-.126.065-.126m-.45 7.394h.7c.012 0 .017-.014.01-.022-.061-.056-.145-.086-.215-.112-.064-.023-.115-.042-.115-.07 0-.063.07-.192.169-.24.106-.05.12-.105.12-.151v-.157c0-.095.056-.114.059-.115l.348-.106-.004-.04s-.312-.154-.39-.154c-.034 0-.058.008-.074.025-.018.02-.02.05-.018.07.002.03 0 .268-.002.352v.08c0 .035-.034.072-.087.07-.037-.002-.098-.002-.13-.002h-.041c-.032 0-.093 0-.13.002a.088.088 0 01-.064-.022.068.068 0 01-.023-.048v-.08c-.002-.084-.004-.323-.002-.353 0-.02 0-.049-.018-.07-.015-.016-.04-.024-.073-.024-.08 0-.42.153-.42.153l-.004.041.377.106c.002.001.06.02.06.115v.157c0 .046.013.1.119.152.098.047.169.176.169.24 0 .027-.05.046-.116.07a.605.605 0 00-.213.111c-.008.008-.003.022.008.022m1.097 5.794h.49c.008 0 .011-.01.006-.016-.042-.04-.1-.06-.15-.078-.044-.016-.08-.03-.08-.049 0-.044.05-.135.117-.168.075-.035.085-.073.085-.106v-.11c0-.065.04-.079.041-.08l.243-.074-.003-.028s-.218-.108-.273-.108c-.023 0-.04.006-.05.018-.013.014-.014.035-.013.049 0 .02 0 .187-.002.246v.056c0 .025-.023.05-.06.05-.027-.002-.069-.002-.091-.002h-.029l-.092.001a.065.065 0 01-.044-.015.05.05 0 01-.016-.034l-.001-.056c0-.059-.002-.226 0-.246 0-.014 0-.035-.013-.05a.075.075 0 00-.052-.017c-.055 0-.293.108-.293.108l-.003.028.264.075c.001 0 .04.014.04.08v.11c0 .032.01.07.085.105.069.033.118.124.118.168 0 .02-.036.033-.08.05a.397.397 0 00-.15.077c-.006.005-.002.016.006.016m7.206-22.685c.003.875.718 1.576 1.574 1.51.721-.057 1.3-.665 1.348-1.416.048-.794-.49-1.468-1.207-1.598-.044-.008-.06-.069-.024-.097.577-.461 1.938-.481 2.431.367a.052.052 0 00.098-.019c.117-.756.86-1.44 2.37-1.443.044 0 .07.053.043.09-1.588 2.143-2.095 7.57-2.1 7.567-2.003-1.117-5.566-2.054-9.196-2.054-3.631 0-7.195.937-9.197 2.054-.005.002-.512-5.424-2.1-7.567-.026-.037 0-.09.043-.09 1.51.003 2.252.687 2.37 1.443a.053.053 0 00.098.02c.493-.85 1.854-.829 2.43-.368.037.028.021.089-.023.097-.718.13-1.256.804-1.206 1.598.046.75.626 1.36 1.347 1.415.851.067 1.562-.626 1.574-1.494l.484-.167c.301.583.893.98 1.573.98 1.013 0 1.828-.876 1.785-1.937-.039-.94-.762-1.71-1.664-1.772a1.716 1.716 0 00-.623.07.021.021 0 01-.027-.027c.258-.862 1.74-1.184 2.411-.558.018.016.045-.005.033-.028-.544-1.03-.443-2.158.677-3.115a.023.023 0 01.029 0c1.12.957 1.221 2.085.677 3.115-.012.023.015.044.033.028.672-.626 2.154-.304 2.41.558.006.017-.01.032-.026.028a1.711 1.711 0 00-.503-.076c-1.014 0-1.83.88-1.783 1.945.042.946.777 1.715 1.686 1.765a1.766 1.766 0 001.648-.933m4.943 6.709a.202.202 0 01-.198-.206c0-.114.088-.206.198-.206.11 0 .198.092.198.206a.202.202 0 01-.198.206m-1.696-.624a.346.346 0 01-.339-.352c0-.194.152-.352.339-.352.187 0 .339.158.339.352a.346.346 0 01-.34.352"/><path d="M89.884 12.382a.449.449 0 01-.44-.456c0-.253.198-.457.44-.457.243 0 .44.204.44.457a.448.448 0 01-.44.456m-1.813-.322a.52.52 0 01-.509-.528.52.52 0 01.51-.529c.28 0 .507.237.507.529a.518.518 0 01-.508.528m-1.837-.206a.56.56 0 01-.548-.57c0-.314.245-.569.548-.569.303 0 .547.255.547.57a.559.559 0 01-.547.569m-1.85-.086a.571.571 0 01-.56-.582.57.57 0 01.56-.583c.309 0 .56.26.56.583 0 .32-.251.582-.56.582m-1.852.045a.56.56 0 01-.548-.57.56.56 0 01.548-.57.56.56 0 01.549.57.56.56 0 01-.549.57m-1.842.168a.52.52 0 01-.51-.53c0-.292.229-.53.51-.53a.52.52 0 01.51.53.52.52 0 01-.51.53m-1.821.283c-.243 0-.44-.205-.44-.458s.197-.459.44-.459c.244 0 .441.206.441.459s-.197.458-.44.458m-1.787.405a.348.348 0 01-.34-.354c0-.196.153-.354.34-.354.188 0 .34.158.34.354a.347.347 0 01-.34.354m-1.724.556c-.11 0-.2-.093-.2-.207 0-.115.09-.207.2-.207.11 0 .199.092.199.207a.203.203 0 01-.2.207m6.992-7.426c0 .37-.289.67-.645.67a.658.658 0 01-.646-.67c0-.37.29-.67.646-.67.356 0 .645.3.645.67m5.227 0c0 .37-.289.67-.645.67a.658.658 0 01-.645-.67c0-.37.289-.67.645-.67.356 0 .645.3.645.67m-9.126 1.079c0 .25-.194.452-.434.452s-.434-.203-.434-.452.194-.451.434-.451.434.202.434.451m12.475 0c0 .25-.194.452-.434.452s-.434-.203-.434-.452.195-.451.434-.451c.24 0 .434.202.434.451"/></g></g></svg>