<?xml version="1.0" encoding="UTF-8"?>
<svg width="56px" height="56px" viewBox="0 0 56 56" version="1.1" xmlns="http://www.w3.org/2000/svg" xmlns:xlink="http://www.w3.org/1999/xlink">
    <!-- Generator: Sketch 53.2 (72643) - https://sketchapp.com -->
    <title>jersey-shield</title>
    <desc>Created with Sketch.</desc>
    <g id="Page-1" stroke="none" stroke-width="1" fill="none" fill-rule="evenodd">
        <g id="jersey-shield" fill-rule="nonzero">
            <g id="Group-13" fill="#F3F6F9">
                <circle id="Oval" cx="28" cy="28" r="28"></circle>
            </g>
            <g id="Icon/40x40/ic-privacy-2" transform="translate(15.000000, 9.000000)" fill="#A72115">
                <g id="Group">
                    <g id="Icon/crown">
                        <path d="M9.6090941,31.395 L10.1483098,31.395 C10.1000617,31.3566171 10.045195,31.3277872 9.98654508,31.31 C9.93752547,31.31 9.89830979,31.28 9.89830979,31.255 C9.91090805,31.1779927 9.95805278,31.1114098 10.0257608,31.075 C10.1090941,31.035 10.118898,30.995 10.118898,30.96 L10.118898,30.84 C10.118898,30.77 10.1630157,30.755 10.1630157,30.755 L10.4326235,30.675 L10.4326235,30.645 C10.3370484,30.5963836 10.2368554,30.5578503 10.1336039,30.53 C10.1162786,30.5230352 10.0970077,30.5230352 10.0796823,30.53 C10.0728541,30.5476719 10.0728541,30.5673281 10.0796823,30.585 C10.0796823,30.585 10.0796823,30.785 10.0796823,30.85 C10.0796823,30.915 10.0796823,30.9 10.0796823,30.91 C10.0784351,30.9259345 10.0710056,30.9407026 10.059042,30.9510281 C10.0470784,30.9613536 10.0315699,30.9663828 10.0159568,30.965 L9.78556469,30.965 C9.76987842,30.9716667 9.75223136,30.9716667 9.73654508,30.965 C9.73191477,30.9538113 9.73191477,30.9411887 9.73654508,30.93 C9.73654508,30.93 9.73654508,30.9 9.73654508,30.87 C9.73654508,30.84 9.73654508,30.625 9.73654508,30.605 C9.74390199,30.5874345 9.74390199,30.5675655 9.73654508,30.55 C9.71913609,30.5434999 9.70003251,30.5434999 9.68262351,30.55 C9.57159282,30.5782752 9.4633059,30.6167662 9.3590941,30.665 L9.3590941,30.695 L9.64830979,30.775 C9.64830979,30.775 9.69242743,30.775 9.69242743,30.86 L9.69242743,30.95 C9.69242743,30.985 9.69242743,31.025 9.78556469,31.065 C9.85327267,31.1014098 9.90041741,31.1679927 9.91301567,31.245 C9.91301567,31.245 9.87379998,31.28 9.82478038,31.3 C9.76613044,31.3177872 9.71126372,31.3466171 9.66301567,31.385 M8.40321175,25.165 L9.17281959,25.165 C9.10257884,25.1101091 9.02272161,25.0693819 8.93752547,25.045 C8.86889802,25.045 8.81007449,25 8.81007449,24.97 C8.82858456,24.858259 8.89759803,24.7619307 8.996349,24.71 C9.11399606,24.655 9.12870194,24.595 9.12870194,24.545 L9.12870194,24.375 C9.12870194,24.275 9.19242743,24.255 9.19242743,24.25 L9.57478038,24.135 L9.57478038,24.09 C9.43851123,24.0203113 9.2956106,23.9650235 9.14830979,23.925 C9.11917882,23.9232079 9.09067113,23.9341121 9.06987842,23.955 C9.05979404,23.978942 9.05979404,24.006058 9.06987842,24.03 C9.06987842,24.06 9.06987842,24.32 9.06987842,24.41 C9.06987842,24.5 9.06987842,24.485 9.06987842,24.495 C9.06742605,24.5176094 9.05619138,24.5382727 9.03868749,24.552368 C9.02118359,24.5664632 8.99887114,24.5728141 8.97674116,24.57 L8.62379998,24.57 C8.60159757,24.5780067 8.57737495,24.5780067 8.55517253,24.57 C8.54834434,24.5523281 8.54834434,24.5326719 8.55517253,24.515 C8.55517253,24.515 8.55517253,24.47 8.55517253,24.43 C8.55517253,24.39 8.55517253,24.08 8.55517253,24.05 C8.56525691,24.026058 8.56525691,23.998942 8.55517253,23.975 C8.53437982,23.9541121 8.50587213,23.9432079 8.47674116,23.945 C8.31858456,23.9857212 8.16436186,24.040946 8.01595685,24.11 L8.01595685,24.155 L8.43262351,24.27 C8.43262351,24.27 8.496349,24.27 8.496349,24.395 L8.496349,24.565 C8.496349,24.615 8.496349,24.675 8.62870194,24.73 C8.72745291,24.7819307 8.79646639,24.878259 8.81497645,24.99 C8.81497645,25.02 8.76105489,25.04 8.68752547,25.065 C8.60228566,25.0892664 8.52240776,25.1300042 8.45223136,25.185 M8.94242743,17.23 L9.3590941,17.105 L9.3590941,17.055 C9.20242915,16.9774063 9.03810233,16.9170655 8.86889802,16.875 C8.83676409,16.872785 8.80506693,16.883562 8.78066273,16.905 C8.76949687,16.9321888 8.76949687,16.9628112 8.78066273,16.99 C8.78066273,17.025 8.78066273,17.305 8.78066273,17.405 C8.78066273,17.505 8.78066273,17.485 8.78066273,17.5 C8.77819526,17.5252529 8.76592458,17.548449 8.74658642,17.5644168 C8.72724826,17.5803846 8.70245043,17.5877965 8.67772155,17.585 L8.31497645,17.585 C8.28662259,17.5875507 8.25842987,17.5785643 8.23654508,17.56 C8.22164147,17.5456389 8.21284347,17.5258962 8.21203528,17.505 C8.21203528,17.505 8.21203528,17.455 8.21203528,17.41 C8.21203528,17.365 8.21203528,17.03 8.21203528,16.995 C8.22320114,16.9678112 8.22320114,16.9371888 8.21203528,16.91 C8.18763108,16.888562 8.15593392,16.877785 8.12379998,16.88 C7.95557078,16.9253142 7.79154762,16.9855435 7.63360391,17.06 L7.63360391,17.11 L8.08948626,17.235 C8.08948626,17.235 8.15811371,17.235 8.15811371,17.37 L8.15811371,17.555 C8.15811371,17.61 8.15811371,17.675 8.30517253,17.735 C8.41214863,17.7927449 8.48650409,17.8981845 8.50615293,18.02 C8.50615293,18.055 8.4473294,18.075 8.36889802,18.105 C8.2766525,18.1315464 8.19016408,18.1756555 8.11399606,18.235 L8.95713332,18.235 C8.8809653,18.1756555 8.79447688,18.1315464 8.70223136,18.105 C8.62379998,18.075 8.56497645,18.055 8.56497645,18.02 C8.58462529,17.8981845 8.65898075,17.7927449 8.76595685,17.735 C8.89340783,17.675 8.91301567,17.61 8.91301567,17.555 L8.91301567,17.37 C8.91301567,17.26 8.98164312,17.235 8.98164312,17.235 M20.5404667,20.86 C20.5404667,20.86 20.2610549,20.44 19.9571333,20.445 C20.1266093,20.6151198 20.2718187,20.8086773 20.3885059,21.02 C20.4704599,21.203357 20.5218198,21.3993863 20.5404667,21.6 C20.5404667,21.6 20.2953686,21.6 20.2316431,21.495 C20.240658,21.4284655 20.230436,21.3606939 20.2022314,21.3 C20.1614051,21.5967084 19.9922986,21.8591113 19.741447,22.015 C19.7696363,21.9153663 19.7696363,21.8096337 19.741447,21.71 C19.6623266,21.8221493 19.545352,21.9005048 19.4130157,21.93 C19.1924274,21.98 19.0894863,22 19.0355647,22.055 C19.0458727,21.9809328 19.0825088,21.913313 19.1385059,21.865 C19.1385059,21.865 19.246349,21.765 19.2904667,21.77 C19.0620079,21.681433 18.8041187,21.7317214 18.6238,21.9 C18.4876203,22.0670661 18.2826795,22.1595615 18.0698784,22.15 C17.9655082,22.1564234 17.8658861,22.1967189 17.7855647,22.265 C17.7623827,22.1079033 17.8313888,21.9514895 17.9620353,21.865 C17.9620353,21.865 18.0306627,21.835 17.9620353,21.805 C17.8934078,21.775 17.6532117,21.955 17.6238,22.05 C17.6238,22.05 17.491447,21.695 17.7855647,21.59 C17.7855647,21.59 17.9032117,21.54 17.8787019,21.5 C17.8541921,21.46 17.6041921,21.435 17.501251,21.545 C17.4912103,21.3788604 17.5699472,21.2201493 17.7071333,21.13 C17.8050962,21.0837507 17.9147489,21.0697699 18.0208588,21.09 C18.285982,21.1918881 18.5626968,21.2590902 18.8443882,21.29 C19.1924274,21.29 19.2659568,20.79 19.2659568,20.79 C19.3428548,21.1028311 19.1757119,21.4243802 18.8787019,21.535 C18.8787019,21.535 19.496349,21.365 19.496349,20.86 C19.496349,20.355 18.6875255,20.23 18.2120353,20.23 C18.2120353,20.23 19.1238,19.825 19.5943882,20.405 C19.4551093,20.0997674 19.1548526,19.9046962 18.8247804,19.905 C18.2610549,19.905 17.9424274,20.155 17.496349,20.155 C17.176072,20.1425128 16.8591681,20.0835885 16.5551725,19.98 C16.6242126,20.1305203 16.7206995,20.2662674 16.8394863,20.38 C16.6247122,20.3681798 16.4160332,20.3029508 16.2316431,20.19 C16.0007441,20.0803414 15.7438832,20.0404344 15.491447,20.075 C15.2383427,20.126158 14.9892967,20.1963497 14.746349,20.285 C14.603503,20.3160597 14.4547758,20.3021102 14.3198784,20.245 C13.807029,20.0833199 13.2771797,19.9842941 12.741447,19.95 C12.741447,19.95 12.8738,20.075 12.8738,20.175 C11.9445362,20.0562844 11.0019204,20.2307795 10.1728196,20.675 C10.2369667,20.4185906 10.3880515,20.1936306 10.5992902,20.04 C10.1953291,20.1800441 9.89237868,20.525073 9.80027057,20.95 C9.75161874,21.1494388 9.58827536,21.298198 9.38850587,21.325 C9.38850587,21.325 9.58948626,20.975 9.51595685,20.825 C9.21222403,21.0830273 8.88376653,21.3091703 8.53556469,21.5 C8.38021895,21.5573597 8.20699658,21.5310446 8.07478038,21.43 C8.39340783,21.38 8.56497645,20.975 8.76595685,21.01 C8.76595685,21.01 8.50125096,20.815 8.09438822,21.115 C7.68752547,21.415 7.54536861,21.4 7.46203528,21.36 C6.98434701,21.1310391 6.4722998,20.9856773 5.9473294,20.93 L5.63850587,20.93 C5.63850587,20.93 5.93752547,20.685 5.60419214,20.675 C5.27085881,20.665 5.25615293,20.675 5.18752547,20.61 C5.11889802,20.545 5.03556469,20.36 4.80517253,20.55 C4.7967735,20.3915986 4.91471076,20.2557087 5.06987842,20.245 C5.09929018,20.245 5.09929018,20.2 5.06987842,20.195 C5.04046665,20.19 4.9718392,20.095 4.90811371,20.08 C4.79294167,20.0576225 4.67373796,20.0808672 4.57478038,20.145 C4.57923186,19.9867543 4.69167964,19.853289 4.84438822,19.825 C4.88360391,19.825 4.84438822,19.77 4.81497645,19.755 C4.78556469,19.74 4.746349,19.68 4.69242743,19.62 C4.63850587,19.56 4.48164312,19.595 4.42281959,19.62 C4.43579053,19.5450236 4.47813501,19.4786676 4.54009817,19.4362182 C4.60206133,19.3937688 4.67829993,19.3788866 4.75125096,19.395 C4.75125096,19.395 5.04046665,19.165 5.24144704,19.36 L5.73164312,19.86 C5.8916651,20.0520372 6.10278129,20.1927019 6.33948626,20.265 C6.62870194,20.335 7.37870194,20.58 7.2218392,20.395 C7.2218392,20.395 8.40811371,20.315 8.61399606,19.895 C8.63576182,19.9849218 8.64565322,20.0774064 8.64340783,20.17 C8.64340783,20.17 8.89340783,19.06 9.75615293,18.965 C9.30373814,18.9089585 8.87312182,19.1782968 8.71693724,19.615 C8.70304944,19.5918745 8.69310469,19.5665154 8.68752547,19.54 L8.44242743,19.825 C8.35072127,19.7298144 8.3057384,19.5976727 8.31987842,19.465 C8.27196024,19.5067237 8.24203243,19.5659808 8.23654508,19.63 C8.16696707,19.4626114 8.15151309,19.2769576 8.19242743,19.1 C8.13155844,19.1065207 8.07716581,19.1416584 8.04536861,19.195 C7.98894935,19.0747059 7.95884242,18.9433393 7.95713332,18.81 C7.95713332,18.81 7.71693724,19.235 8.29046665,20.03 C8.14172958,19.8698701 7.94525835,19.7643961 7.73164312,19.73 C7.47857979,19.7060181 7.23892782,19.603002 7.04536861,19.435 C7.04536861,19.435 7.33948626,19.47 7.27576077,19.315 C7.13850587,18.975 5.52085881,18.215 5.52085881,18.215 C5.52085881,18.215 5.65321175,18.1 5.75615293,18.12 C5.75615293,18.12 5.44242743,17.575 5.13360391,17.49 C4.93743335,17.4547357 4.77171568,17.3213882 4.69242743,17.135 C4.64291586,17.0170642 4.50982268,16.9614269 4.39340783,17.01 C4.40068553,16.9527319 4.4302431,16.9008574 4.47542415,16.8660588 C4.5206052,16.8312602 4.57761103,16.8164631 4.63360391,16.825 C4.7218392,16.825 4.75615293,16.825 4.73654508,16.825 C4.68719408,16.8051797 4.64813364,16.765338 4.62870194,16.715 C4.59799358,16.6665891 4.54739389,16.6350213 4.49115416,16.6291876 C4.43491444,16.6233539 4.37912038,16.6438856 4.33948626,16.685 C4.36645079,16.544794 4.48387043,16.4415457 4.62379998,16.435 C4.6973294,16.435 4.73164312,16.435 4.73654508,16.435 C4.74144704,16.435 4.69242743,16.24 4.39340783,16.33 C4.51865762,16.1869053 4.69566574,16.1020476 4.88360391,16.095 C4.9516977,16.0596547 5.02800853,16.0440873 5.10419214,16.05 C5.22674116,16.05 5.44242743,16.05 5.71203528,16.94 C5.95679846,17.6285035 6.57038104,18.1100798 7.28556469,18.175 C7.28068692,18.2209712 7.27082262,18.2662483 7.25615293,18.31 C7.36907161,18.3524164 7.49151137,18.3610892 7.6090941,18.335 C7.66119904,18.4186559 7.718506,18.4988201 7.78066273,18.575 C7.93540049,18.7666546 8.16990576,18.8723456 8.41301567,18.86 L8.44242743,18.86 C8.68553734,18.8723456 8.92004262,18.7666546 9.07478038,18.575 C9.26226785,18.3387135 9.42646062,18.084149 9.56497645,17.815 C9.8599671,18.0964442 10.2446613,18.2597912 10.6483098,18.275 C11.3100745,18.275 12.118898,17.85 12.5453686,18.01 C12.5453686,18.01 12.2071333,18.075 12.3296823,18.29 C12.4522314,18.505 13.1924274,17.935 15.1581137,17.935 C16.2316431,17.935 18.0453686,18.57 18.2022314,17.635 C18.2284232,17.4699418 18.1294451,17.3109871 17.9718392,17.265 C18.0382209,17.3985763 18.0382209,17.5564237 17.9718392,17.69 C17.9718392,17.69 18.0159568,17.16 16.991447,17.16 C15.9669372,17.16 14.9424274,17.47 13.8492902,17.47 C12.7561529,17.47 12.251251,16.995 12.251251,16.505 C12.251251,16.015 12.8100745,15.715 13.368898,15.715 C13.9277216,15.715 15.1483098,16.03 15.996349,16.03 C16.2406386,16.0229539 16.4628232,15.8839298 16.5796823,15.665 C16.62776,15.5520412 16.7297949,15.4725653 16.8492902,15.455 C16.8492902,15.455 16.7267412,15.71 16.9081137,15.675 C17.0894863,15.64 17.1581137,15.35 17.1728196,15.27 C17.3256189,15.4872353 17.3175983,15.7817516 17.1532117,15.99 C17.0715823,16.0887741 16.9556401,16.1514883 16.8296823,16.165 C16.669129,16.126364 16.5030172,16.1178923 16.3394863,16.14 C16.0460795,16.2008503 15.7464084,16.2243629 15.4473294,16.21 C14.9571333,16.21 13.9767412,15.995 13.4865451,15.995 C12.996349,15.995 12.6336039,16.165 12.6336039,16.565 C12.6336039,16.965 13.1238,17.17 13.7659568,17.17 C14.4081137,17.17 16.6532117,16.78 17.0208588,16.78 C17.3885059,16.78 18.491447,16.89 18.491447,17.68 C18.491447,18.47 17.3836039,18.645 16.8590941,18.645 C16.5398514,18.5513833 16.2106443,18.4976567 15.8787019,18.485 C16.2621428,18.629148 16.6369688,18.7961011 17.001251,18.985 C17.3812059,19.2264691 17.8106301,19.375325 18.2561529,19.42 C18.746349,19.455 19.6090941,19.46 19.7806627,19.475 C19.9522314,19.49 20.0453686,19.53 20.0992902,19.725 C20.1310527,19.8421809 20.1806781,19.9535403 20.246349,20.055 C20.246349,20.055 20.1532117,20.1 19.9718392,19.835 C19.9983506,20.0333562 20.1005194,20.2130325 20.2561529,20.335 C20.5453686,20.61 20.4375255,20.835 20.4375255,20.835 M9.54046665,16.985 C9.53297355,16.9110154 9.51480345,16.8385663 9.48654508,16.77 C9.42871854,16.8713649 9.41452685,16.9925973 9.4473294,17.105 C9.48991695,17.3013779 9.46928843,17.5065286 9.38850587,17.69 C9.25269709,17.9576582 9.08830027,18.2091853 8.89830979,18.44 C8.77330753,18.5793462 8.59284911,18.6529733 8.40811371,18.64 L8.40811371,18.64 C8.22337831,18.6529733 8.04291989,18.5793462 7.91791763,18.44 C7.72811832,18.2090392 7.56373608,17.9575344 7.42772155,17.69 C7.34027162,17.5069865 7.31277699,17.3001582 7.34929018,17.1 C7.38167734,16.9857477 7.36187033,16.8626921 7.29536861,16.765 C7.26711024,16.8335663 7.24894014,16.9060154 7.24144704,16.98 C7.24144704,16.89 6.90321175,16.145 7.1090941,16.12 C7.2653118,16.118862 7.41792859,16.1678366 7.54536861,16.26 C7.83719051,16.1586611 8.14400607,16.1096037 8.45223136,16.115 C8.71986083,16.0956185 8.98795454,16.1454941 9.23164312,16.26 C9.35908314,16.1678366 9.51169993,16.118862 9.66791763,16.12 C9.87379998,16.145 9.56497645,16.885 9.53556469,16.98 M8.77085881,25.535 L8.77085881,25.535 C8.60073367,25.546743 8.43466121,25.4786172 8.31987842,25.35 C8.13526323,25.1406062 7.97413527,24.9108509 7.83948626,24.665 C7.76884443,24.4961243 7.75337563,24.3085392 7.79536861,24.13 C7.82566764,24.024412 7.80765767,23.910517 7.746349,23.82 C7.72088343,23.8822515 7.70437287,23.9479305 7.6973294,24.015 C7.6973294,23.93 7.38850587,23.255 7.57968234,23.2299974 C7.72215427,23.2296033 7.86111187,23.2750991 7.97674116,23.36 C8.24847729,23.268446 8.53383345,23.2261403 8.81987842,23.235 L8.81987842,23.235 C9.06371688,23.2174034 9.30800976,23.2620837 9.53066273,23.365 C9.64629202,23.2800991 9.78524962,23.2346033 9.92772155,23.235 C10.118898,23.235 9.82968234,23.935 9.81007449,24.02 C9.80331006,23.9528793 9.7867892,23.8871593 9.76105489,23.825 C9.70618229,23.9182373 9.691967,24.0306092 9.7218392,24.135 C9.76002155,24.3129953 9.74111855,24.4987946 9.66791763,24.665 C9.54214755,24.9091922 9.39094811,25.138851 9.21693724,25.35 C9.10215444,25.4786172 8.93608198,25.546743 8.76595685,25.535 M15.001251,20.92 C15.001251,20.59 14.3836039,20.745 14.2022314,20.745 C13.9692617,20.6882846 13.7660525,20.5435506 13.6336039,20.34 C13.833994,20.3842232 14.0306753,20.4444077 14.2218392,20.52 C14.3418193,20.5693112 14.4699366,20.5947683 14.5992902,20.595 C14.667634,20.6040005 14.7368287,20.6040005 14.8051725,20.595 L15.4375255,20.415 C15.568493,20.3873764 15.7036167,20.3873764 15.8345843,20.415 C15.8889503,20.5950341 15.9527679,20.7719562 16.0257608,20.945 C16.1434078,21.2 16.4473294,21.685 15.6973294,21.71 C15.2758799,21.6767868 14.8526866,21.7453038 14.4620353,21.91 C14.4620353,21.91 14.5208588,21.685 14.6139961,21.645 C14.4655815,21.6461193 14.3182971,21.671439 14.1777216,21.72 C14.0242435,21.760944 13.8902924,21.8567625 13.8002706,21.99 C13.8002706,21.99 13.746349,21.765 13.8002706,21.71 C13.6681214,21.8767535 13.4661595,21.9695468 13.2561529,21.96 C12.9460059,21.9027945 12.6316952,22.0357249 12.4522314,22.3 C12.4522314,22.3 12.2757608,21.865 12.6434078,21.755 C12.6434078,21.755 12.7218392,21.72 12.6434078,21.69 C12.4854563,21.6413979 12.3141304,21.6771 12.1875255,21.785 C12.1890773,21.5718825 12.3228992,21.3831936 12.5208588,21.315 C12.5208588,21.315 12.5992902,21.315 12.6090941,21.27 C12.618898,21.225 12.3836039,21.135 12.2267412,21.22 C12.2267412,21.22 12.3051725,20.83 12.6532117,20.89 C12.721784,20.7917194 12.8476239,20.7544545 12.9571333,20.8 C13.2326248,20.919865 13.514052,21.0250075 13.8002706,21.115 C13.9767412,21.16 15.0257608,21.3 15.0306627,20.97 M5.38850587,23.875 C5.34196485,23.8578615 5.30461614,23.8215799 5.28556469,23.775 C5.25761396,23.7306733 5.21156629,23.701556 5.1602122,23.6957359 C5.10885811,23.6899157 5.05766727,23.7080127 5.02085881,23.745 C5.0454401,23.6165973 5.15257132,23.5217558 5.28066273,23.515 C5.34929018,23.515 5.37870194,23.515 5.38360391,23.515 C5.38850587,23.515 5.34438822,23.34 5.06987842,23.42 C5.18622325,23.2872117 5.35121688,23.2093985 5.52576077,23.205 C5.58802207,23.1735145 5.65744257,23.1596981 5.72674116,23.165 C5.83948626,23.165 6.03556469,23.165 6.28066273,23.975 C6.50465435,24.6026448 7.06463574,25.041265 7.71693724,25.1 C7.71350128,25.1424886 7.70527711,25.1844318 7.69242743,25.225 C7.79578277,25.2643728 7.90796587,25.2730415 8.01595685,25.25 C8.0637573,25.3249618 8.11614905,25.3967712 8.17281959,25.465 C8.31363162,25.6383584 8.5258351,25.7345574 8.746349,25.725 L8.77085881,25.725 C8.99560657,25.7325427 9.21043003,25.6304106 9.34929018,25.45 C9.52115916,25.2354319 9.67219472,25.0043475 9.80027057,24.76 C10.0675376,25.014725 10.4152303,25.1636765 10.7806627,25.18 C11.3836039,25.18 12.118898,24.79 12.5110549,24.94 C12.5110549,24.94 12.2022314,25 12.3149765,25.195 C12.4277216,25.39 13.0992902,24.87 14.8983098,24.87 C15.8787019,24.87 17.5355647,25.45 17.6777216,24.595 C17.7033997,24.4432883 17.6123212,24.2963766 17.4669372,24.255 C17.5271926,24.3759748 17.5271926,24.5190252 17.4669372,24.64 C17.4669372,24.64 17.5061529,24.14 16.5600745,24.14 C15.6139961,24.14 14.6875255,24.42 13.6924274,24.42 C12.6973294,24.42 12.3002706,24.015 12.3002706,23.57 C12.3002706,23.125 12.7904667,22.85 13.3198784,22.85 C13.8492902,22.85 14.9473294,23.14 15.7218392,23.14 C15.944782,23.1346659 16.1481966,23.009034 16.2561529,22.81 C16.2996781,22.7073234 16.3926092,22.6352832 16.501251,22.62 C16.501251,22.62 16.3885059,22.85 16.5551725,22.82 C16.7218392,22.79 16.7855647,22.525 16.7953686,22.45 C16.9276333,22.6501401 16.9136247,22.9155039 16.7610549,23.1 C16.6873011,23.1905126 16.5817173,23.2479502 16.4669372,23.26 C16.3210415,23.2333201 16.1716565,23.2333201 16.0257608,23.26 C15.7582025,23.3159404 15.4848692,23.3377741 15.2120353,23.325 C14.7659568,23.325 13.8787019,23.125 13.4228196,23.125 C12.9669372,23.125 12.6434078,23.28 12.6434078,23.625 C12.6434078,23.97 13.1336039,24.18 13.6777216,24.18 C14.2218392,24.18 16.3149765,23.825 16.6483098,23.825 C16.9816431,23.825 18.0110549,23.925 18.0110549,24.645 C18.0110549,25.365 17.001251,25.525 16.5404667,25.525 C16.2469003,25.4378262 15.9440157,25.3874552 15.6385059,25.375 C15.9880925,25.5031719 16.3301609,25.6517506 16.6630157,25.82 C17.0103953,26.040117 17.4029771,26.1753061 17.8100745,26.215 C18.2708588,26.25 19.0453686,26.255 19.2022314,26.265 C19.3590941,26.275 19.4473294,26.315 19.491447,26.49 C19.5202865,26.5963071 19.5649219,26.6974806 19.6238,26.79 C19.6238,26.79 19.5355647,26.83 19.3738,26.59 C19.3935401,26.7777595 19.4873338,26.9492428 19.6336039,27.065 C19.8983098,27.315 19.8002706,27.525 19.8002706,27.525 C19.8002706,27.525 19.5453686,27.14 19.2659568,27.145 C19.402346,27.3084029 19.5161489,27.4900917 19.6041921,27.685 C19.6803745,27.8522878 19.7284304,28.0314533 19.746349,28.215 C19.746349,28.215 19.5208588,28.215 19.4669372,28.12 C19.4747598,28.0583542 19.4645264,27.9957258 19.4375255,27.94 C19.4038534,28.213076 19.2482123,28.454899 19.0159568,28.595 C19.0421006,28.5035714 19.0421006,28.4064286 19.0159568,28.315 C18.9445277,28.4176918 18.8377436,28.4891146 18.7169372,28.515 C18.5159568,28.56 18.4228196,28.575 18.3738,28.625 C18.384313,28.5589365 18.4172849,28.4987541 18.4669372,28.455 C18.4669372,28.455 18.5649765,28.365 18.6041921,28.37 C18.4104548,28.3219839 18.2060279,28.3764609 18.0600745,28.515 C17.9384746,28.6617975 17.7582386,28.7445259 17.5698784,28.74 C17.4742537,28.7446254 17.3828541,28.7815646 17.3100745,28.845 C17.2891839,28.7015077 17.3524303,28.5588008 17.4718392,28.48 C17.4718392,28.48 17.5355647,28.455 17.4718392,28.425 C17.4081137,28.395 17.1875255,28.565 17.1630157,28.65 C17.1630157,28.65 17.0404667,28.325 17.3100745,28.23 C17.3100745,28.23 17.4179176,28.185 17.3983098,28.15 C17.3787019,28.115 17.1483098,28.09 17.0551725,28.19 C17.0452461,28.0382782 17.1164937,27.8929331 17.241447,27.81 C17.3321496,27.7687164 17.4330075,27.7565109 17.5306627,27.775 C17.773524,27.8692787 18.0272208,27.9314509 18.2855647,27.96 C18.6041921,27.96 18.6728196,27.51 18.6728196,27.51 C18.7459415,27.7970025 18.5930937,28.0936545 18.3198784,28.195 C18.3198784,28.195 18.8836039,28.04 18.8836039,27.58 C18.8836039,27.12 18.1336039,27.005 17.6924274,27.005 C17.6924274,27.005 18.5257608,26.635 18.9571333,27.165 C18.8269278,26.8914059 18.5543104,26.7183416 18.2561529,26.72 C17.741447,26.72 17.4522314,26.95 17.0453686,26.95 C16.7484667,26.9399574 16.4545603,26.8860636 16.1728196,26.79 C16.2359202,26.9273855 16.3240919,27.0512583 16.4326235,27.155 C16.236705,27.1438949 16.046474,27.0837953 15.8787019,26.98 C15.6676386,26.8799286 15.4329243,26.8434968 15.2022314,26.875 C14.9708719,26.9213146 14.7431409,26.9848172 14.5208588,27.065 C14.3912686,27.0934575 14.2562694,27.0812563 14.1336039,27.03 C13.6577391,26.8645825 13.1639182,26.758806 12.6630157,26.715 C12.6630157,26.715 12.7806627,26.83 12.7806627,26.92 C11.9388305,26.809849 11.0840576,26.9632978 10.3296823,27.36 C10.3858422,27.1253 10.523403,26.9192722 10.7169372,26.78 C10.3392767,26.9142676 10.0607393,27.2441381 9.98654508,27.645 C9.94450187,27.8295963 9.79358102,27.9675418 9.6090941,27.99 C9.6090941,27.99 9.79046665,27.67 9.72674116,27.53 C9.44879002,27.7652916 9.1482443,27.9713378 8.82968234,28.145 C8.68797987,28.1963675 8.53061805,28.1739708 8.40811371,28.085 C8.6973294,28.04 8.89830979,27.67 9.04046665,27.705 C9.04046665,27.705 8.80027057,27.53 8.42772155,27.8 C8.05517253,28.07 7.93752547,28.065 7.85419214,28.025 C7.41660503,27.8162437 6.94758777,27.6843885 6.46693724,27.635 L6.18752547,27.635 C6.18752547,27.635 6.46203528,27.415 6.15321175,27.405 C5.84438822,27.395 5.8345843,27.405 5.77576077,27.345 C5.71693724,27.285 5.63360391,27.115 5.42772155,27.29 C5.42370896,27.2196895 5.44730148,27.150642 5.49328888,27.098106 C5.53927629,27.04557 5.60387526,27.0138676 5.67281959,27.01 C5.6973294,27.01 5.70223136,26.97 5.67281959,26.965 C5.64340783,26.96 5.5845843,26.875 5.52576077,26.86 C5.42065963,26.8399642 5.31202113,26.8614116 5.2218392,26.92 C5.22461816,26.7730765 5.32971435,26.649063 5.4718392,26.625 C5.50615293,26.625 5.4718392,26.575 5.4473294,26.56 C5.42281959,26.545 5.38850587,26.45 5.33948626,26.415 C5.29046665,26.38 5.14830979,26.415 5.09438822,26.415 C5.10618203,26.3467207 5.14472418,26.2862831 5.20113718,26.2476078 C5.25755018,26.2089325 5.32697028,26.1953541 5.39340783,26.21 C5.39340783,26.21 5.65811371,26 5.8345843,26.175 L6.29046665,26.64 C6.44202598,26.8133986 6.63949347,26.9384159 6.8590941,27 C7.12379998,27.065 7.81007449,27.285 7.66791763,27.12 C7.66791763,27.12 8.75125096,27.05 8.93752547,26.67 C8.95682944,26.7535011 8.96507277,26.8392648 8.96203528,26.925 C8.96203528,26.925 9.18752547,25.925 9.97674116,25.825 C9.56650319,25.7791838 9.17767158,26.0216697 9.03066273,26.415 C9.01703042,26.3935409 9.00708405,26.3698685 9.00125096,26.345 L8.77576077,26.605 C8.69119134,26.5180483 8.64974281,26.3967302 8.66301567,26.275 C8.61822351,26.312261 8.58996755,26.3663005 8.5845843,26.425 C8.51825529,26.2671928 8.50447987,26.0915561 8.54536861,25.925 C8.49092538,25.9314786 8.44227479,25.9627231 8.41301567,26.01 C8.36230037,25.9005142 8.33553803,25.7810873 8.3345843,25.66 C8.3345843,25.66 8.11399606,26.05 8.63850587,26.775 C8.50845694,26.6318123 8.3365073,26.5353485 8.14830979,26.5 C7.91851106,26.4774375 7.70112068,26.3831551 7.52576077,26.23 C7.52576077,26.23 7.79536861,26.265 7.73654508,26.12 C7.6090941,25.81 6.13360391,25.12 6.13360391,25.12 C6.13360391,25.12 6.25615293,25.015 6.34929018,25.035 C6.34929018,25.035 6.06007449,24.535 5.78066273,24.465 C5.6018796,24.4319191 5.45108358,24.309995 5.37870194,24.14 C5.33369709,24.0340317 5.21465824,23.9832563 5.1090941,24.025 C5.11511179,23.9720915 5.14208561,23.9239965 5.1837494,23.8918876 C5.22541319,23.8597787 5.27814043,23.8464508 5.32968234,23.855 C5.41301567,23.855 5.44242743,23.855 5.42281959,23.855 M9.89830979,31.635 L9.89830979,31.635 C9.77983579,31.6423257 9.66448356,31.5945266 9.5845843,31.505 C9.46214624,31.3507218 9.35692332,31.1830228 9.27085881,31.005 C9.22262178,30.8880218 9.21231613,30.7583767 9.24144704,30.635 C9.26210439,30.5617053 9.24951555,30.4828272 9.20713332,30.42 C9.18911849,30.4647287 9.17756023,30.5118864 9.17281959,30.56 C9.17281959,30.5 8.95713332,30.03 9.08948626,30.015 C9.18944118,30.0152414 9.28693503,30.0466447 9.36889802,30.105 C9.55523378,30.041438 9.75088897,30.0109954 9.9473294,30.015 C10.1155098,30.0032048 10.2839335,30.0341274 10.4375255,30.105 C10.5194885,30.0466447 10.6169823,30.0152414 10.7169372,30.015 C10.8492902,30.015 10.6483098,30.515 10.6336039,30.56 C10.6288633,30.5118864 10.617305,30.4647287 10.5992902,30.42 C10.5620824,30.4850442 10.5531975,30.5629829 10.5747804,30.635 C10.6004861,30.7594555 10.5867534,30.8890236 10.5355647,31.005 C10.4497152,31.1831465 10.3444774,31.3508692 10.2218392,31.505 C10.1408424,31.5959499 10.0233588,31.6438832 9.90321175,31.635 M14.8051725,27.595 C14.8051725,27.29 14.241447,27.435 14.0747804,27.435 C13.8620373,27.3829012 13.6764447,27.2507453 13.5551725,27.065 C13.7387772,27.1037018 13.9190816,27.1572031 14.0943882,27.225 C14.2033695,27.2703543 14.3198255,27.2941113 14.4375255,27.295 C14.4993993,27.3025003 14.5619262,27.3025003 14.6238,27.295 L15.1924274,27.135 C15.3120522,27.1095192 15.4355478,27.1095192 15.5551725,27.135 C15.6045007,27.304996 15.6634226,27.4719412 15.7316431,27.635 C15.8394863,27.87 16.118898,28.31 15.4326235,28.335 C15.0477681,28.3052607 14.661467,28.3686477 14.3051725,28.52 C14.3051725,28.52 14.3590941,28.315 14.4424274,28.28 C14.3074958,28.2795785 14.1733942,28.3015314 14.0453686,28.345 C13.9043463,28.3815453 13.7808547,28.4684765 13.6973294,28.59 C13.6973294,28.59 13.6483098,28.385 13.6973294,28.33 C13.5785557,28.481125 13.3969237,28.5663467 13.2071333,28.56 C12.9237957,28.5087654 12.6370255,28.6296677 12.4718392,28.87 C12.4718392,28.87 12.3100745,28.475 12.6483098,28.37 C12.6483098,28.37 12.7218392,28.335 12.6483098,28.31 C12.5035243,28.2641145 12.3457653,28.2981904 12.2316431,28.4 C12.2280684,28.2021385 12.354436,28.0261866 12.5404667,27.97 C12.5404667,27.97 12.6139961,27.97 12.6238,27.93 C12.6336039,27.89 12.4179176,27.805 12.2708588,27.88 C12.2708588,27.88 12.3394863,27.525 12.6581137,27.58 C12.7006802,27.491766 12.7926064,27.4398961 12.8885059,27.45 C13.0110549,27.5 13.4620353,27.685 13.6581137,27.735 C13.8541921,27.785 14.7757608,27.905 14.7806627,27.6 M7.496349,30.495 C7.46500361,30.4822942 7.44017823,30.4569723 7.42772155,30.425 C7.40544563,30.3955578 7.37104522,30.3783144 7.3345843,30.3783144 C7.29812337,30.3783144 7.26372296,30.3955578 7.24144704,30.425 C7.25916074,30.3357797 7.33370872,30.2700163 7.42281959,30.265 C7.46693724,30.265 7.49144704,30.265 7.496349,30.265 C7.50125096,30.265 7.4718392,30.145 7.27576077,30.2 C7.35706609,30.1072114 7.47241356,30.0529094 7.59438822,30.05 C7.63810716,30.0266832 7.68734451,30.0162924 7.73654508,30.02 C7.81497645,30.02 7.95223136,30.02 8.12379998,30.585 C8.28148519,31.0230679 8.67297018,31.3288845 9.12870194,31.37 C9.1320213,31.3999045 9.1320213,31.4300955 9.12870194,31.46 C9.18911558,31.4708257 9.25115692,31.4674051 9.31007449,31.45 C9.34423854,31.5025786 9.38190922,31.552697 9.42281959,31.6 C9.52150731,31.7212624 9.67046966,31.7879684 9.82478038,31.78 L9.82478038,31.78 C9.97909109,31.7879684 10.1280534,31.7212624 10.2267412,31.6 C10.3436324,31.4437295 10.4454145,31.2762816 10.5306627,31.1 C10.7188445,31.2798101 10.96419,31.3845257 11.2218392,31.395 C11.6434078,31.395 12.1581137,31.125 12.4326235,31.225 C12.4326235,31.225 12.2169372,31.27 12.2953686,31.4 C12.3738,31.53 12.8443882,31.17 14.0992902,31.17 C14.7855647,31.17 15.9424274,31.575 16.0600745,30.98 C16.0764536,30.8749877 16.013295,30.7740602 15.9130157,30.745 C15.9549653,30.8299143 15.9549653,30.9300857 15.9130157,31.015 C15.9130157,31.015 15.9424274,30.675 15.2806627,30.675 C14.618898,30.675 13.9718392,30.87 13.2757608,30.87 C12.5796823,30.87 12.2953686,30.585 12.2953686,30.275 C12.2953686,29.965 12.6532117,29.775 13.0061529,29.775 C13.3590941,29.775 14.1434078,29.975 14.6826235,29.975 C14.838123,29.9715514 14.9800626,29.8839224 15.0551725,29.745 C15.0852596,29.6724758 15.1503306,29.6212742 15.2267412,29.61 C15.2267412,29.61 15.1483098,29.77 15.2659568,29.75 C15.3836039,29.73 15.4277216,29.54 15.4375255,29.49 C15.5363825,29.624907 15.5363825,29.810093 15.4375255,29.945 C15.3855593,30.0076133 15.3116953,30.0470778 15.2316431,30.055 C15.1295208,30.0362707 15.0249419,30.0362707 14.9228196,30.055 C14.7358359,30.0939643 14.5448303,30.1090801 14.3541921,30.1 C14.0404667,30.1 13.4228196,29.96 13.1041921,29.96 C12.7855647,29.96 12.5600745,30.07 12.5600745,30.325 C12.5600745,30.58 12.8885059,30.71 13.2806627,30.71 C13.6728196,30.71 15.1238,30.46 15.3541921,30.46 C15.5845843,30.46 16.3100745,30.53 16.3100745,31.035 C16.3100745,31.54 15.6041921,31.65 15.2708588,31.65 C15.0650737,31.5887711 14.8527051,31.553508 14.6385059,31.545 C14.8827214,31.6341898 15.1216816,31.7376956 15.3541921,31.855 C15.5957623,32.0100126 15.8692483,32.1058501 16.1532117,32.135 C16.4767412,32.135 17.0159568,32.16 17.1336039,32.17 C17.251251,32.18 17.3051725,32.205 17.3345843,32.33 C17.3547618,32.4045043 17.3861835,32.475352 17.4277216,32.54 C17.4277216,32.54 17.368898,32.57 17.251251,32.4 C17.2670012,32.5299845 17.3321257,32.6484757 17.4326235,32.73 C17.618898,32.905 17.5453686,33.05 17.5453686,33.05 C17.5453686,33.05 17.3639961,32.78 17.1728196,32.785 C17.2806607,32.8947886 17.3730449,33.0193093 17.4473294,33.155 C17.4998114,33.2719667 17.5329394,33.3969917 17.5453686,33.525 C17.5453686,33.525 17.3885059,33.525 17.3492902,33.46 C17.3608651,33.4191697 17.3608651,33.3758303 17.3492902,33.335 C17.3268057,33.5266758 17.2180741,33.6967321 17.0551725,33.795 C17.0732831,33.7313125 17.0732831,33.6636875 17.0551725,33.6 C17.0041518,33.6714872 16.9291216,33.7213212 16.8443882,33.74 C16.7022314,33.77 16.6385059,33.785 16.6041921,33.82 C16.6092675,33.7741623 16.6301098,33.7316441 16.6630157,33.7 C16.6630157,33.7 16.7316431,33.64 16.7610549,33.64 C16.6252247,33.6047913 16.4811637,33.6424688 16.3787019,33.74 C16.2923416,33.847076 16.1615518,33.9063674 16.0257608,33.9 C15.9587669,33.9035402 15.8948861,33.9299558 15.8443882,33.975 C15.8443882,33.975 15.8198784,33.785 15.9571333,33.72 C15.9571333,33.72 16.001251,33.72 15.9571333,33.68 C15.9130157,33.64 15.7610549,33.775 15.741447,33.835 C15.7218392,33.895 15.6581137,33.605 15.8443882,33.54 C15.8443882,33.54 15.9179176,33.51 15.9032117,33.485 C15.8885059,33.46 15.7267412,33.44 15.6630157,33.515 C15.6570584,33.408786 15.7076312,33.3075281 15.7953686,33.25 C15.8607161,33.2285784 15.9310015,33.2285784 15.996349,33.25 C16.1650652,33.3158725 16.3413201,33.3595574 16.5208588,33.38 C16.741447,33.38 16.7904667,33.065 16.7904667,33.065 C16.854997,33.2733389 16.7436925,33.4959479 16.5404667,33.565 C16.5404667,33.565 16.9326235,33.455 16.9326235,33.135 C16.9326235,32.815 16.4179176,32.73 16.1139961,32.73 C16.1139961,32.73 16.6973294,32.47 16.996349,32.845 C16.9054149,32.6537229 16.7145551,32.5330231 16.5061529,32.535 C16.1434078,32.535 15.9424274,32.695 15.6581137,32.695 C15.4528036,32.6860256 15.2497893,32.6473043 15.0551725,32.58 C15.0994236,32.6758456 15.1609503,32.7623487 15.2365451,32.835 C15.0997537,32.8280673 14.966746,32.7868518 14.8492902,32.715 C14.6968608,32.6407625 14.5261692,32.6146467 14.3590941,32.64 C14.1925117,32.6719713 14.0286189,32.7171073 13.868898,32.775 C13.7786019,32.7943901 13.6846781,32.7856808 13.5992902,32.75 C13.2708492,32.6357185 12.9302009,32.561862 12.5845843,32.53 C12.5845843,32.53 12.6679176,32.61 12.6679176,32.675 C12.0752349,32.5971385 11.4733604,32.7052707 10.9424274,32.985 C10.9827764,32.8218472 11.078245,32.678436 11.2120353,32.58 C10.9556265,32.6796025 10.7694479,32.9093842 10.7218392,33.185 C10.6918105,33.3137862 10.5860441,33.409681 10.4571333,33.425 C10.4571333,33.425 10.5845843,33.2 10.5404667,33.1 C10.3459302,33.2643612 10.1357287,33.4084148 9.91301567,33.53 C9.8137057,33.5654529 9.70363952,33.5486128 9.61889802,33.485 C9.81987842,33.45 9.9473294,33.195 10.0600745,33.22 C10.0600745,33.22 9.89340783,33.095 9.63360391,33.285 C9.37379998,33.475 9.28556469,33.47 9.23164312,33.44 C8.92266746,33.2918236 8.59106121,33.1988081 8.25125096,33.165 L8.05517253,33.165 C8.05517253,33.165 8.246349,33.01 8.05517253,33.005 C7.86399606,33 7.82968234,33.005 7.79046665,32.965 C7.75125096,32.925 7.69242743,32.805 7.54536861,32.925 C7.54269698,32.8759169 7.55928737,32.8277674 7.59147715,32.7911814 C7.62366694,32.7545954 7.66880893,32.7325816 7.71693724,32.73 C7.71693724,32.73 7.71693724,32.7 7.71693724,32.695 C7.71693724,32.69 7.65321175,32.635 7.61399606,32.62 C7.54069383,32.6077768 7.46555532,32.623818 7.40321175,32.665 C7.40655703,32.5624759 7.48044522,32.4766424 7.57968234,32.46 C7.57968234,32.46 7.57968234,32.425 7.57968234,32.415 C7.57968234,32.405 7.53556469,32.365 7.50125096,32.33 C7.46693724,32.295 7.36889802,32.33 7.32968234,32.33 C7.33909051,32.2827318 7.36670337,32.2412923 7.40632959,32.2149732 C7.4459558,32.188654 7.49427988,32.1796572 7.54046665,32.19 C7.54046665,32.19 7.72674116,32.04 7.84929018,32.19 L8.16791763,32.515 C8.27020878,32.6362946 8.40468995,32.7248479 8.55517253,32.77 C8.74144704,32.815 9.21693724,32.97 9.11889802,32.855 C9.11889802,32.855 9.87379998,32.805 10.0061529,32.54 C10.0138271,32.5980707 10.0138271,32.6569293 10.0061529,32.715 C10.0061529,32.715 10.1630157,32.005 10.7120353,31.945 C10.4243247,31.9125342 10.1517357,32.0834779 10.0502706,32.36 C10.0475281,32.3434507 10.0475281,32.3265493 10.0502706,32.31 L9.89340783,32.49 C9.83485226,32.4291587 9.80607637,32.3447734 9.81497645,32.26 C9.78407397,32.2863308 9.76468037,32.3240955 9.76105489,32.365 C9.71719606,32.2592056 9.70691108,32.1420597 9.73164312,32.03 C9.69328923,32.0345756 9.65903729,32.0566411 9.63850587,32.09 C9.60335824,32.013277 9.58496064,31.929685 9.5845843,31.845 C9.5845843,31.845 9.42772155,32.115 9.79536861,32.625 C9.70029932,32.522598 9.57429368,32.4556941 9.43752547,32.435 C9.27643931,32.4187998 9.12413243,32.3524692 9.00125096,32.245 C9.00125096,32.245 9.18752547,32.245 9.14830979,32.165 C9.06007449,31.95 8.02576077,31.465 8.02576077,31.465 C8.02576077,31.465 8.1090941,31.39 8.17772155,31.405 C8.246349,31.42 7.97674116,31.06 7.78066273,31.005 C7.65360728,30.9828773 7.54640323,30.8961529 7.496349,30.775 C7.46482344,30.6994645 7.37962368,30.6638117 7.30517253,30.695 C7.30878262,30.6581094 7.32710766,30.6243566 7.3558481,30.6016609 C7.38458854,30.5789652 7.42121477,30.5693242 7.45713332,30.575 L7.52576077,30.575 M22.4473294,15.545 L21.5649765,15.045 C20.324407,14.4076228 19.005377,13.9434561 17.6434078,13.665 C14.1706037,12.8977221 10.5769962,12.8977221 7.10419214,13.665 C5.74264758,13.9425693 4.42371697,14.4050194 3.18262351,15.04 L2.31497645,15.54 C2.31497645,20.925 0.515956847,32.13 12.3639961,38.54 C24.1875255,32.145 22.4130157,21.215 22.4130157,15.54" id="Shape"></path>
                        <path d="M17.5061529,6.99 C17.5113564,7.85460564 18.1756224,8.56561226 19.0220409,8.61255224 C19.8684593,8.65949223 20.6043849,8.0261363 20.7014593,7.1672027 C20.7985338,6.30826911 20.2231942,5.5207302 19.3885059,5.37 C19.3665194,5.36501986 19.3492507,5.34767193 19.3440341,5.32532409 C19.3388175,5.30297625 19.3465689,5.27955204 19.3639961,5.265 C19.996349,4.765 21.4865451,4.765 22.0306627,5.66 C22.0400137,5.68187679 22.0611867,5.69602084 22.0845843,5.69602084 C22.1079819,5.69602084 22.1291549,5.68187679 22.1385059,5.66 C22.2659568,4.845 23.0845843,4.11 24.7365451,4.105 C24.75883,4.10451657 24.7794684,4.11692241 24.7898499,4.13704165 C24.8002313,4.15716089 24.7985722,4.181537 24.7855647,4.2 C23.0453686,6.505 22.491447,12.345 22.4816431,12.3400032 C20.2855647,11.14 16.3787019,10.13 12.3983098,10.13 C8.41791763,10.13 4.51105489,11.13 2.31497645,12.3400032 C2.31497645,12.3400032 1.75125096,6.505 0.0110548859,4.2 C-0.00195260072,4.181537 -0.00361172328,4.15716089 0.00676972267,4.13704165 C0.0171511686,4.11692241 0.0377896234,4.10451657 0.0600744938,4.105 C1.71693724,4.105 2.51105489,4.845 2.65811371,5.66 C2.66746463,5.68187679 2.68863765,5.69602084 2.71203528,5.69602084 C2.73543291,5.69602084 2.75660592,5.68187679 2.76595685,5.66 C3.30517253,4.745 4.80027057,4.77 5.43262351,5.265 C5.45005069,5.27955204 5.45780204,5.30297625 5.45258545,5.32532409 C5.44736887,5.34767193 5.43010022,5.36501986 5.40811371,5.37 C4.57532563,5.52047484 4.00043887,6.30501934 4.09477534,7.16230494 C4.18911181,8.01959054 4.92020947,8.6546174 5.76498009,8.61303435 C6.60975072,8.5714513 7.27750097,7.86756745 7.29046665,7.005 L7.81987842,6.825 C8.31228559,7.74688303 9.41969765,8.12352047 10.3559875,7.68754579 C11.2922773,7.25157112 11.7387265,6.15139256 11.3784109,5.16800234 C11.0180952,4.18461211 9.97366813,3.65276177 8.98654508,3.95 C9.27085881,3.02 10.8934078,2.675 11.6287019,3.35 C11.0306627,2.24 11.1385059,1.03 12.368898,-3.8191672e-14 C13.5943882,1.03 13.7071333,2.245 13.1090941,3.35 C13.8443882,2.675 15.4718392,3.025 15.751251,3.95 C14.7681722,3.65479725 13.7280372,4.18155643 13.3643483,5.15880742 C13.0006594,6.13605841 13.4360995,7.23414572 14.3635967,7.67869912 C15.2910938,8.12325252 16.3977759,7.76431108 16.9032117,6.855" id="Path"></path>
                        <path d="M22.3738,14.09 C22.2546797,14.09 22.1581137,13.9915026 22.1581137,13.87 C22.1581137,13.7484974 22.2546797,13.65 22.3738,13.65 C22.4929202,13.65 22.5894863,13.7484974 22.5894863,13.87 C22.5894863,13.9283476 22.5667622,13.9843055 22.5263132,14.0255635 C22.4858642,14.0668215 22.4310035,14.09 22.3738,14.09" id="Path"></path>
                        <path d="M20.5110549,13.42 C20.3053017,13.42 20.1385059,13.2498682 20.1385059,13.04 C20.1385059,12.8301318 20.3053017,12.66 20.5110549,12.66 C20.716808,12.66 20.8836039,12.8301318 20.8836039,13.04 C20.8836039,13.2498682 20.716808,13.42 20.5110549,13.42" id="Path"></path>
                        <path d="M18.5698784,12.95 C18.2991506,12.95 18.0796823,12.7261424 18.0796823,12.45 C18.0796823,12.1738576 18.2991506,11.95 18.5698784,11.95 C18.8406062,11.95 19.0600745,12.1738576 19.0600745,12.45 C19.0600745,12.7261424 18.8406062,12.95 18.5698784,12.95" id="Path"></path>
                        <path d="M16.5796823,12.59 C16.2730968,12.5817677 16.0303041,12.3230406 16.0356496,12.0102625 C16.0409951,11.6974845 16.2924812,11.4475461 16.5991617,11.4502182 C16.9058423,11.4528903 17.1531055,11.7071744 17.1532117,12.02 C17.1532117,12.3348023 16.9030179,12.59 16.5943882,12.59" id="Path"></path>
                        <path d="M14.5649765,12.365 C14.2346885,12.365 13.9669372,12.0918937 13.9669372,11.755 C13.9669372,11.4181063 14.2346885,11.145 14.5649765,11.145 C14.8952644,11.145 15.1630157,11.4181063 15.1630157,11.755 C15.1603501,12.0907611 14.894154,12.3622812 14.5649765,12.365" id="Path"></path>
                        <path d="M12.5355647,12.275 C12.1971549,12.275 11.9228196,11.995178 11.9228196,11.65 C11.9228196,11.304822 12.1971549,11.025 12.5355647,11.025 C12.8739745,11.025 13.1483098,11.304822 13.1483098,11.65 C13.1483098,11.995178 12.8739745,12.275 12.5355647,12.275" id="Path"></path>
                        <path d="M10.5061529,12.325 C10.1731577,12.325 9.90321175,12.0496551 9.90321175,11.71 C9.90321175,11.3703449 10.1731577,11.095 10.5061529,11.095 C10.8391481,11.095 11.1090941,11.3703449 11.1090941,11.71 C11.1090941,12.0496551 10.8391481,12.325 10.5061529,12.325" id="Path"></path>
                        <path d="M8.48654508,12.505 C8.25920063,12.5049197 8.05456484,12.3643644 7.96900245,12.1495228 C7.88344006,11.9346812 7.93400823,11.6883827 8.096894,11.5266115 C8.25977976,11.3648402 8.50251124,11.3198458 8.71078412,11.4128165 C8.91905701,11.5057872 9.05135135,11.7181889 9.04536861,11.95 C9.04536861,12.2648023 8.7951748,12.52 8.48654508,12.52" id="Path"></path>
                        <path d="M6.49144704,12.81 C6.22071922,12.81 6.00125096,12.5861424 6.00125096,12.31 C6.00125096,12.0338576 6.22071922,11.81 6.49144704,11.81 C6.76217486,11.81 6.98164312,12.0338576 6.98164312,12.31 C6.98164312,12.5861424 6.76217486,12.81 6.49144704,12.81" id="Path"></path>
                        <path d="M4.53066273,13.245 C4.32490959,13.245 4.15811371,13.0748682 4.15811371,12.865 C4.15811371,12.6551318 4.32490959,12.485 4.53066273,12.485 C4.73641587,12.485 4.90321175,12.6551318 4.90321175,12.865 C4.90321175,13.0748682 4.73641587,13.245 4.53066273,13.245" id="Path"></path>
                        <path d="M2.64340783,13.84 C2.5533267,13.8420201 2.47109606,13.7879551 2.43570232,13.7034377 C2.40030859,13.6189202 2.41886736,13.520942 2.48257972,13.4559553 C2.54629209,13.3909687 2.64234924,13.3720388 2.72520945,13.4081404 C2.80806967,13.444242 2.86107462,13.5281173 2.8590941,13.62 C2.8590941,13.6783476 2.83637008,13.7343055 2.79592105,13.7755635 C2.75547203,13.8168215 2.70061138,13.84 2.64340783,13.84" id="Path"></path>
                        <path d="M10.2904667,5.85 C10.2904667,6.24764502 9.97443236,6.57 9.5845843,6.57 C9.19473624,6.57 8.87870194,6.24764502 8.87870194,5.85 C8.87870194,5.45235498 9.19473624,5.13 9.5845843,5.13 C9.97443236,5.13 10.2904667,5.45235498 10.2904667,5.85" id="Path"></path>
                        <path d="M16.0404667,5.85 C16.0404667,6.24764502 15.7244324,6.57 15.3345843,6.57 C14.9447362,6.57 14.6287019,6.24764502 14.6287019,5.85 C14.6287019,5.45235498 14.9447362,5.13 15.3345843,5.13 C15.7244324,5.13 16.0404667,5.45235498 16.0404667,5.85" id="Path"></path>
                        <path d="M6.03066273,7.015 C6.03066273,7.29114237 5.81119447,7.515 5.54046665,7.515 C5.26973883,7.515 5.05027057,7.29114237 5.05027057,7.015 C5.05027057,6.73885763 5.26973883,6.515 5.54046665,6.515 C5.81119447,6.515 6.03066273,6.73885763 6.03066273,7.015" id="Path"></path>
                        <path d="M19.7120353,8.015 C19.7120353,8.29114237 19.492567,8.515 19.2218392,8.515 C18.9511114,8.515 18.7316431,8.29114237 18.7316431,8.015 C18.7316431,7.73885763 18.9511114,7.515 19.2218392,7.515 C19.492567,7.515 19.7120353,7.73885763 19.7120353,8.015" id="Path"></path>
                    </g>
                </g>
            </g>
        </g>
    </g>
</svg>