<svg id="Layer_1" data-name="Layer 1" xmlns="http://www.w3.org/2000/svg" viewBox="0 0 55.53 55.2"><defs><style>.cls-1{fill:#df2f2f;}.cls-2{fill:#353b79;}.cls-3{fill:#fff;}</style></defs><path class="cls-1" d="M28,2.3A25.78,25.78,0,1,1,2.18,28.07,25.77,25.77,0,0,1,28,2.3ZM10.51,37.14,41.75,14.06A19.66,19.66,0,0,0,10.51,37.14ZM45.38,19,14.12,42.05A19.66,19.66,0,0,0,45.38,19Z"/><path class="cls-2" d="M44.06,36.16a1.25,1.25,0,0,1-1.23,1.24H13.13a1.25,1.25,0,0,1-1.23-1.24V18.59a1.24,1.24,0,0,1,1.23-1.23h8.63l-.25.72a.29.29,0,0,0,0,.36.36.36,0,0,0,.31.15H34.4a.36.36,0,0,0,.31-.15.46.46,0,0,0,0-.36l-.25-.72h8.32a1.24,1.24,0,0,1,1.23,1.23Z"/><path class="cls-2" d="M28.13,14.58a.83.83,0,1,1-.82.83A.88.88,0,0,1,28.13,14.58Z"/><path class="cls-2" d="M23,16.54a.72.72,0,0,1,.66-.47H26.8a1.53,1.53,0,0,0,2.77,0h3.19a.62.62,0,0,1,.62.47l.51,1.28H22.43Z"/><rect class="cls-3" x="29.06" y="23.01" width="12.69" height="0.77"/><rect class="cls-3" x="29.06" y="26.25" width="12.69" height="0.77"/><rect class="cls-3" x="29.06" y="29.54" width="12.69" height="0.77"/><path class="cls-2" d="M22.67,29.22h0l2.17.59h0a2.29,2.29,0,0,1,1.6,1.77l.29,2.6a1,1,0,0,1,0,.38,1,1,0,0,1-.19.34,1,1,0,0,1-.31.23,1,1,0,0,1-.38.07H21.5l-.85,1.14,0,0a.19.19,0,0,1-.27,0l-.86-1.15H15.2a1,1,0,0,1-.38-.07,1.14,1.14,0,0,1-.31-.23,1,1,0,0,1-.19-.34,1,1,0,0,1,0-.38l.29-2.6a2.31,2.31,0,0,1,1.6-1.77h0l2.05-.56s0,0,.06,0h0l.31-.08h0l.08,0h0L18.8,29l.08,0a.18.18,0,0,0,.05-.07.37.37,0,0,0,.06-.21v-.41a3.15,3.15,0,0,1-.72-.69,3.67,3.67,0,0,1-.57-1.32h0a.63.63,0,0,1-.44-.35A1.82,1.82,0,0,1,17,25.4a2.18,2.18,0,0,1-.08-.83.45.45,0,0,1,.24-.33l.12,0a7.14,7.14,0,0,1-.21-.74,2.4,2.4,0,0,1,0-1.1,2.92,2.92,0,0,1,1.56-1.89A4.42,4.42,0,0,1,20.46,20a3.68,3.68,0,0,1,1.69.32,1.76,1.76,0,0,1,.92,1,1.1,1.1,0,0,1,.6.52,1.64,1.64,0,0,1,.18,1.1,2,2,0,0,1-.05.24c-.05.18-.11.39-.18.61s-.09.28-.13.41l.1,0h0a.42.42,0,0,1,.24.25l0,.1a2.54,2.54,0,0,1-.13,1.06,1.5,1.5,0,0,1-.19.38.6.6,0,0,1-.35.24h0a3.6,3.6,0,0,1-.5,1.3,2.9,2.9,0,0,1-.65.66v.51a.37.37,0,0,0,.06.21.35.35,0,0,0,.13.14h0l.14.06.3.09Zm2.19.59Z"/><path class="cls-3" d="M21.08,30.35l.64.71a.1.1,0,0,0,.07,0h.06a.18.18,0,0,0,.08-.05A.17.17,0,0,0,22,31h0l.39-1.4-.14,0h0l-.09,0-.25.2Z"/><path class="cls-3" d="M22.77,29.64l-.4,1.41h0a.66.66,0,0,1-.41.42.49.49,0,0,1-.53-.16l-.35-.39.5,3.9h4.25a.51.51,0,0,0,.22,0,.46.46,0,0,0,.18-.13.59.59,0,0,0,.12-.2.75.75,0,0,0,0-.22l-.29-2.6a1.9,1.9,0,0,0-1.33-1.44Z"/><path class="cls-3" d="M19.21,29.21l1,.88h.54l1.05-.86a.36.36,0,0,1-.08-.12.73.73,0,0,1-.1-.39v-.25l0,0H19.37v.17a.73.73,0,0,1-.1.39.21.21,0,0,1-.06.1Z"/><path class="cls-3" d="M19.91,30.9l-.36.41a.5.5,0,0,1-.27.17h0a.43.43,0,0,1-.25,0,.53.53,0,0,1-.22-.12h0a.59.59,0,0,1-.18-.29h0l-.4-1.4-1.93.53A1.9,1.9,0,0,0,15,31.62l-.29,2.6a.75.75,0,0,0,0,.22.59.59,0,0,0,.12.2.46.46,0,0,0,.18.13.51.51,0,0,0,.22,0h4.21Z"/><path class="cls-3" d="M18.59,29.55,19,30.94h0a.23.23,0,0,0,.07.1h0l.08,0h.06s0,0,.07,0l.64-.75-1-.84-.09,0-.19.05Z"/><polygon class="cls-3" points="20.35 30.47 19.78 34.96 20.49 35.91 21.21 34.96 20.64 30.47 20.35 30.47 20.35 30.47"/><path class="cls-3" d="M23.2,24.88l-.54.29v0a1,1,0,0,1-.28.69h0a1,1,0,0,1-.69.29,1,1,0,0,1-.69-.29,1,1,0,0,1-.29-.69h0a.1.1,0,0,0-.05,0,.44.44,0,0,0-.25-.08.41.41,0,0,0-.24.08l0,0h0a1,1,0,0,1-.29.69h0a1,1,0,0,1-.69.29,1,1,0,0,1-.69-.29h0a1,1,0,0,1-.29-.69v0l-.56-.29h-.1c0-.06-.05-.12-.07-.19s-.05,0-.07,0,0,0,0,.05a1.7,1.7,0,0,0,.07.66,2.11,2.11,0,0,0,.18.45c.06.09.12.16.19.17h.06a.19.19,0,0,1,.23.15,3.24,3.24,0,0,0,.53,1.32,2.64,2.64,0,0,0,.66.63l.05,0,.1.07.1.06h1.94l.23-.15h0l.07,0,0,0a2.71,2.71,0,0,0,.61-.61A3.24,3.24,0,0,0,22.83,26a.06.06,0,0,0,0,0,.2.2,0,0,1,.25-.12h.05a.22.22,0,0,0,.11-.09,1,1,0,0,0,.13-.27,2.17,2.17,0,0,0,.12-.87,0,0,0,0,0,0,0l0,0h-.08v0l0,.07h0a.19.19,0,0,1-.14.15Z"/><path class="cls-3" d="M22.57,24.78l.35-.19-.45-1.92a2.2,2.2,0,0,0-1,.28,4.71,4.71,0,0,1-3.32.44l-.23,1.2.35.19a1.05,1.05,0,0,1,.2-.27h0a1,1,0,0,1,.69-.29,1,1,0,0,1,.69.29h0a1,1,0,0,1,.2.28.78.78,0,0,1,.37-.09.89.89,0,0,1,.39.09,1.1,1.1,0,0,1,.2-.28h0a1,1,0,0,1,.69-.29,1,1,0,0,1,.69.29h0a1.31,1.31,0,0,1,.19.27Z"/><path class="cls-3" d="M22.1,24.78a.57.57,0,0,0-.42-.17.59.59,0,0,0-.42.17h0a.6.6,0,0,0,0,.84.59.59,0,0,0,.42.17.57.57,0,0,0,.42-.17h0a.58.58,0,0,0,0-.84Z"/><path class="cls-3" d="M19.56,24.78a.59.59,0,0,0-.42-.17.57.57,0,0,0-.42.17h0a.6.6,0,0,0,0,.84h0a.57.57,0,0,0,.42.17.59.59,0,0,0,.42-.17h0a.6.6,0,0,0,0-.84Z"/><path class="cls-3" d="M17.63,24l.16-.84A.19.19,0,0,1,18,23h0a4.34,4.34,0,0,0,3.26-.36c.59-.25,1-.45,1.43-.25a.26.26,0,0,1,.1.13h0l.33,1.44.09-.26c.07-.22.13-.43.18-.6a1.77,1.77,0,0,0,0-.2,1.25,1.25,0,0,0-.13-.85.73.73,0,0,0-.42-.35h0a.19.19,0,0,1-.16-.14h0a1.3,1.3,0,0,0-.75-.84,3.1,3.1,0,0,0-1.5-.28,3.91,3.91,0,0,0-1.64.42,2.56,2.56,0,0,0-1.37,1.64,2.09,2.09,0,0,0,0,.93c0,.17.09.36.16.57Z"/><rect class="cls-1" x="4.69" y="24.97" width="46.53" height="6.21" transform="translate(-11.22 22.19) rotate(-36.58)"/></svg>