<svg id="Layer_1" data-name="Layer 1" xmlns="http://www.w3.org/2000/svg" viewBox="0 0 54.2 54.87"><defs><style>.cls-1{fill:#df2f2f;}.cls-2{fill:#353b79;}</style></defs><path class="cls-1" d="M27.54,2.1A25.78,25.78,0,1,1,1.76,27.88,25.78,25.78,0,0,1,27.54,2.1ZM10.09,36.94,41.33,13.87A19.66,19.66,0,0,0,10.09,36.94ZM45,18.76,13.71,41.85A19.66,19.66,0,0,0,45,18.76Z"/><path class="cls-2" d="M21.35,38c-2.24-3.23-3.72-5.4-4.44-6.53a19,19,0,0,1-2.09-4.07,12.23,12.23,0,0,1-.54-3.8A12.48,12.48,0,0,1,16,17.1a13.13,13.13,0,0,1,4.71-4.71,12.8,12.8,0,0,1,12.92,0,13.23,13.23,0,0,1,4.72,4.71,12.56,12.56,0,0,1,1.75,6.47,12.23,12.23,0,0,1-.54,3.8,19,19,0,0,1-2.09,4.07c-.72,1.13-2.2,3.3-4.44,6.53l-4.51,6.47a1.7,1.7,0,0,1-2.7,0C24.7,42.73,23.19,40.58,21.35,38ZM31,27.37a5.35,5.35,0,0,0,0-7.61,5.38,5.38,0,0,0-9.18,3.81A5.39,5.39,0,0,0,27.21,29,5.15,5.15,0,0,0,31,27.37Z"/><rect class="cls-1" x="5" y="24.23" width="46.53" height="6.21" transform="translate(-10.73 22.23) rotate(-36.58)"/></svg>