<svg id="Layer_1" data-name="Layer 1" xmlns="http://www.w3.org/2000/svg" viewBox="0 0 54.54 55.53"><defs><style>.cls-1{fill:#353b79;}.cls-2{fill:#df2f2f;}</style></defs><path class="cls-1" d="M32.26,21l-1,.53v.06a1.8,1.8,0,0,1-.53,1.28h0a1.81,1.81,0,0,1-3.09-1.28h0l-.09-.07a.81.81,0,0,0-.47-.14.73.73,0,0,0-.45.14l-.08.07h0A1.8,1.8,0,0,1,26,22.83h0a1.81,1.81,0,0,1-2.56,0h0a1.8,1.8,0,0,1-.53-1.28v-.07l-1-.55h-.19c0-.12-.09-.23-.13-.35l-.13,0a.14.14,0,0,0-.08.1,3.61,3.61,0,0,0,.14,1.23,3.68,3.68,0,0,0,.33.83.64.64,0,0,0,.34.31.17.17,0,0,0,.1,0h0a.37.37,0,0,1,.43.28,6.34,6.34,0,0,0,1,2.46,5.14,5.14,0,0,0,1.22,1.15l.09.06.19.12.19.12H29l.42-.27h0l.12-.09.05,0a4.41,4.41,0,0,0,1.12-1.12,5.87,5.87,0,0,0,.86-2.42s0-.05,0-.08a.35.35,0,0,1,.46-.22h.09a.37.37,0,0,0,.21-.16,2.21,2.21,0,0,0,.24-.51,4.08,4.08,0,0,0,.22-1.59.42.42,0,0,0,0-.06.09.09,0,0,0-.06-.07h-.15v.06l0,.13h0a.38.38,0,0,1-.26.29Z"/><path class="cls-1" d="M31.09,20.77l.66-.35-.83-3.56a3.82,3.82,0,0,0-1.89.53,8.83,8.83,0,0,1-6.16.81l-.42,2.21.66.35a1.9,1.9,0,0,1,.35-.49h0a1.81,1.81,0,0,1,2.56,0h0a1.82,1.82,0,0,1,.36.51,1.72,1.72,0,0,1,.7-.17,1.51,1.51,0,0,1,.72.18,1.9,1.9,0,0,1,.37-.52h0a1.81,1.81,0,0,1,2.56,0h0a1.64,1.64,0,0,1,.36.5Z"/><path class="cls-1" d="M30.23,20.77a1.1,1.1,0,0,0-.78-.32,1.06,1.06,0,0,0-.77.32h0a1.11,1.11,0,0,0-.33.78,1.13,1.13,0,0,0,1.1,1.1,1.15,1.15,0,0,0,.78-.32h0a1.06,1.06,0,0,0,.32-.77,1.1,1.1,0,0,0-.32-.78Z"/><path class="cls-1" d="M25.52,20.77a1.1,1.1,0,0,0-1.55,0h0a1.1,1.1,0,0,0-.32.78,1.06,1.06,0,0,0,.32.77,1.1,1.1,0,0,0,.78.33,1.12,1.12,0,0,0,.77-.32h0a1.06,1.06,0,0,0,.32-.77,1.1,1.1,0,0,0-.32-.78Z"/><path class="cls-1" d="M21.94,19.23l.3-1.55a.35.35,0,0,1,.41-.29h.05a8.05,8.05,0,0,0,6.05-.67c1.08-.46,1.92-.82,2.64-.45a.36.36,0,0,1,.18.24h0l.62,2.66c.06-.16.11-.33.16-.49.12-.4.24-.78.33-1.1,0-.14.06-.26.08-.37a2.37,2.37,0,0,0-.24-1.57,1.41,1.41,0,0,0-.78-.66h-.07a.35.35,0,0,1-.29-.27h0A2.42,2.42,0,0,0,30,13.16a5.84,5.84,0,0,0-2.78-.52,7.22,7.22,0,0,0-3,.79,4.67,4.67,0,0,0-2.53,3,3.85,3.85,0,0,0,0,1.72c.07.32.16.67.28,1.05Z"/><path class="cls-1" d="M28.34,31.07l1.18,1.32a.21.21,0,0,0,.12.08h.12a.42.42,0,0,0,.14-.09.39.39,0,0,0,.13-.2h0l.74-2.59-.26-.07h0l-.16-.06-.46.38Z"/><path class="cls-1" d="M31.46,29.77l-.74,2.6h0a1.22,1.22,0,0,1-.34.55,1.27,1.27,0,0,1-.41.23.94.94,0,0,1-.5,0,1,1,0,0,1-.48-.3l-.65-.73.92,7.21h7.87a1.07,1.07,0,0,0,.41-.08,1.11,1.11,0,0,0,.33-.25,1,1,0,0,0,.21-.36,1,1,0,0,0,0-.42l-.53-4.81a3.52,3.52,0,0,0-2.46-2.66Z"/><path class="cls-1" d="M24.88,29l1.91,1.62h1L29.74,29a1.14,1.14,0,0,1-.15-.23,1.46,1.46,0,0,1-.19-.72V27.6l0,0H25.18v.32a1.46,1.46,0,0,1-.19.72,1.74,1.74,0,0,1-.11.18Z"/><path class="cls-1" d="M26.16,32.09l-.66.77a.88.88,0,0,1-.49.31h0a.93.93,0,0,1-.47,0,1.23,1.23,0,0,1-.4-.23l0,0a1.14,1.14,0,0,1-.34-.54h0L23,29.79l-3.58,1A3.52,3.52,0,0,0,17,33.43l-.53,4.81a1,1,0,0,0,0,.42,1,1,0,0,0,.21.36,1.11,1.11,0,0,0,.33.25,1.07,1.07,0,0,0,.41.08h7.79Z"/><path class="cls-1" d="M23.72,29.6l.73,2.57h0v0a.39.39,0,0,0,.12.19h0a.31.31,0,0,0,.13.08h.12A.28.28,0,0,0,25,32.4l1.2-1.4-1.92-1.55-.16.06-.36.09Z"/><polygon class="cls-1" points="26.98 31.31 25.93 39.61 27.25 41.37 28.57 39.61 27.51 31.31 26.98 31.31 26.98 31.31"/><path class="cls-2" d="M27.29,1.8A25.78,25.78,0,1,1,1.52,27.58,25.78,25.78,0,0,1,27.29,1.8ZM9.84,36.64,41.08,13.57A19.66,19.66,0,0,0,9.84,36.64ZM44.71,18.46,13.46,41.55A19.66,19.66,0,0,0,44.71,18.46Z"/></svg>