<svg id="Layer_1" data-name="Layer 1" xmlns="http://www.w3.org/2000/svg" viewBox="0 0 35.25 45.23"><defs><style>.cls-1{fill:#353b79;}</style></defs><path class="cls-1" d="M17.42,2.31a11.79,11.79,0,0,0-11.64,12v4.79h0c-2.14.22-3.26,2-3.26,4.22V39.05a4.23,4.23,0,0,0,4.23,4.24H28.09a4.23,4.23,0,0,0,4.23-4.24V23.3c0-2.19-1.12-4-3.26-4.23V14.28A11.79,11.79,0,0,0,17.42,2.31Zm0,4.65a7.38,7.38,0,0,1,7.45,7.35v4.76H10V14.31A7.38,7.38,0,0,1,17.42,7Zm0,18.16a3.26,3.26,0,0,1,1.77,6,1.83,1.83,0,0,1,.09.52v3.73a1.86,1.86,0,1,1-3.72,0V31.64a2.25,2.25,0,0,1,.08-.52,3.27,3.27,0,0,1,1.78-6Z"/></svg>