<svg id="Layer_1" data-name="Layer 1" xmlns="http://www.w3.org/2000/svg" viewBox="0 0 42.57 45.56"><defs><style>.cls-1{fill:#353b79;}</style></defs><g id="Group_153" data-name="Group 153"><path id="Path_375" data-name="Path 375" class="cls-1" d="M37.54,28.05a34.21,34.21,0,0,1-7.11,10.18,23.73,23.73,0,0,1-7.76,5.25,3.42,3.42,0,0,1-2.9,0,24,24,0,0,1-8.49-6,32.32,32.32,0,0,1-6.7-10.42A37.24,37.24,0,0,1,1.83,12.79a3.82,3.82,0,0,1,.65-2.18A3.44,3.44,0,0,1,4.26,9.23L19.77,2.77a3.42,3.42,0,0,1,2.9,0L38.18,9.23A3.44,3.44,0,0,1,40,10.61a3.82,3.82,0,0,1,.65,2.18A37.41,37.41,0,0,1,37.54,28.05Z"/></g></svg>