<svg id="Layer_1" data-name="Layer 1" xmlns="http://www.w3.org/2000/svg" viewBox="0 0 35.91 41.57"><defs><style>.cls-1{fill:#353b79;}</style></defs><path class="cls-1" d="M30.69,7.84V9.65a.91.91,0,0,1-.9.9H5.36a.91.91,0,0,1-.91-.9V7.84a.91.91,0,0,1,.91-.91H29.79A.91.91,0,0,1,30.69,7.84ZM6.35,12.36h22.4l-2.9,26.33a.89.89,0,0,1-.9.81H10.15a.92.92,0,0,1-.9-.86ZM22,33.17h.14a.92.92,0,0,0,.9-.77l1.81-12.67A.92.92,0,0,0,23,19.46L21.19,32.13A1,1,0,0,0,22,33.17Zm-5.29-.91a.91.91,0,1,0,1.81,0V19.6a.91.91,0,1,0-1.81,0ZM10.34,19.73l1.8,12.67a.9.9,0,0,0,.91.77h.13a.91.91,0,0,0,.77-1L12.14,19.46a.91.91,0,1,0-1.8.27ZM21.19,3.31a.91.91,0,0,0-.9-.9H14.86a.91.91,0,0,0-.91.9V5.12h7.24Z"/></svg>